<svg id="kity_svg_6" xmlns="http://www.w3.org/2000/svg" xmlns:xlink="http://www.w3.org/1999/xlink" version="1.1" width="1579" height="1579" style="background: rgb(251, 251, 251); visibility: visible;" viewBox="0 0 1579 1579"><defs id="kity_defs_7"><linearGradient id="kity_linearGradient_17" x1="0" y1="0" x2="0" y2="1"><stop id="kity_stop_18" offset="0" stop-color="rgb(255, 255, 255)"></stop><stop id="kity_stop_19" offset="1" stop-color="rgb(204, 204, 204)"></stop></linearGradient><marker id="kity_marker_2" orient="auto" refX="6" refY="0" viewBox="-7 -7 14 14" markerWidth="7" markerHeight="7" markerUnits="userSpaceOnUse"><path id="kity_path_3" fill="rgb(115, 161, 191)" stroke="none" d="M6,0A6,6,0,1,1,-6,0A6,6,0,1,1,6,0"></path></marker></defs><g id="kity_g_8"><g id="minder1" text-rendering="optimize-speed"><g id="minder_connect_group1"><path id="kity_path_31" fill="none" stroke="rgb(115, 161, 191)" stroke-width="1" d="M750.4999674488199,826.5000327094011A238,593,0,0,0,512.4999674488199,233.50003270940113"></path><path id="kity_path_33" fill="none" stroke="rgb(115, 161, 191)" stroke-width="1" d="M455.4999674488199,233.50003270940113C413.9999674488199,233.50003270940113,413.9999674488199,175.50003270940113,372.4999674488199,175.50003270940113L306.4999674488199,175.50003270940113"></path><path id="kity_path_35" fill="none" stroke="rgb(115, 161, 191)" stroke-width="1" d="M306.4999674488199,175.50003270940113C256.4999674488199,175.50003270940113,256.4999674488199,72.50003270940113,206.49996744881992,72.50003270940113L151.49996744881992,72.50003270940113"></path><path id="kity_path_37" fill="none" stroke="rgb(115, 161, 191)" stroke-width="1" d="M151.49996744881992,72.50003270940113C115.99996744881992,72.50003270940113,115.99996744881992,45.500032709401125,80.49996744881992,45.500032709401125L28.499967448819916,45.500032709401125"></path><path id="kity_path_39" fill="none" stroke="rgb(115, 161, 191)" stroke-width="1" d="M151.49996744881992,72.50003270940113C114.99996744881992,72.50003270940113,114.99996744881992,93.50003270940113,78.49996744881992,93.50003270940113L27.499967448819916,93.50003270940113"></path><path id="kity_path_41" fill="none" stroke="rgb(115, 161, 191)" stroke-width="1" d="M306.4999674488199,175.50003270940113C268.4999674488199,175.50003270940113,268.4999674488199,130.50003270940113,230.49996744881992,130.50003270940113L140.49996744881992,130.50003270940113"></path><path id="kity_path_43" fill="none" stroke="rgb(115, 161, 191)" stroke-width="1" d="M306.4999674488199,175.50003270940113C270.9999674488199,175.50003270940113,270.9999674488199,186.50003270940113,235.49996744881992,186.50003270940113L145.49996744881992,186.50003270940113"></path><path id="kity_path_45" fill="none" stroke="rgb(115, 161, 191)" stroke-width="1" d="M145.49996744881992,186.50003270940113C118.99996744881992,186.50003270940113,118.99996744881992,162.50003270940113,92.49996744881992,162.50003270940113L24.499967448819916,162.50003270940113"></path><path id="kity_path_47" fill="none" stroke="rgb(115, 161, 191)" stroke-width="1" d="M145.49996744881992,186.50003270940113C116.49996744881992,186.50003270940113,116.49996744881992,206.50003270940113,87.49996744881992,206.50003270940113L21.499967448819916,206.50003270940113"></path><path id="kity_path_49" fill="none" stroke="rgb(115, 161, 191)" stroke-width="1" d="M306.4999674488199,175.50003270940113C256.9999674488199,175.50003270940113,256.9999674488199,237.50003270940113,207.49996744881992,237.50003270940113L153.49996744881992,237.50003270940113"></path><path id="kity_path_51" fill="none" stroke="rgb(115, 161, 191)" stroke-width="1" d="M455.4999674488199,233.50003270940113C410.4999674488199,233.50003270940113,410.4999674488199,272.5000327094011,365.4999674488199,272.5000327094011L299.4999674488199,272.5000327094011"></path><path id="kity_path_53" fill="none" stroke="rgb(115, 161, 191)" stroke-width="1" d="M299.4999674488199,272.5000327094011C266.9999674488199,272.5000327094011,266.9999674488199,283.5000327094011,234.49996744881992,283.5000327094011L144.49996744881992,283.5000327094011"></path><path id="kity_path_55" fill="none" stroke="rgb(115, 161, 191)" stroke-width="1" d="M750.4999674488199,826.5000327094011A244,460,0,0,0,506.4999674488199,366.5000327094011"></path><path id="kity_path_57" fill="none" stroke="rgb(115, 161, 191)" stroke-width="1" d="M450.4999674488199,366.5000327094011C390.9999674488199,366.5000327094011,390.9999674488199,366.5000327094011,331.4999674488199,366.5000327094011L121.49996744881992,366.5000327094011"></path><path id="kity_path_59" fill="none" stroke="rgb(115, 161, 191)" stroke-width="1" d="M750.4999674488199,826.5000327094011A209,297,0,0,0,541.4999674488199,529.5000327094011"></path><path id="kity_path_61" fill="none" stroke="rgb(115, 161, 191)" stroke-width="1" d="M429.4999674488199,529.5000327094011C414.4999674488199,529.5000327094011,414.4999674488199,439.5000327094011,399.4999674488199,439.5000327094011L321.4999674488199,439.5000327094011"></path><path id="kity_path_63" fill="none" stroke="rgb(115, 161, 191)" stroke-width="1" d="M429.4999674488199,529.5000327094011C414.4999674488199,529.5000327094011,414.4999674488199,491.5000327094011,399.4999674488199,491.5000327094011L320.4999674488199,491.5000327094011"></path><path id="kity_path_65" fill="none" stroke="rgb(115, 161, 191)" stroke-width="1" d="M429.4999674488199,529.5000327094011C414.4999674488199,529.5000327094011,414.4999674488199,543.5000327094011,399.4999674488199,543.5000327094011L320.4999674488199,543.5000327094011"></path><path id="kity_path_67" fill="none" stroke="rgb(115, 161, 191)" stroke-width="1" d="M429.4999674488199,529.5000327094011C414.4999674488199,529.5000327094011,414.4999674488199,595.5000327094011,399.4999674488199,595.5000327094011L305.4999674488199,595.5000327094011"></path><path id="kity_path_69" fill="none" stroke="rgb(115, 161, 191)" stroke-width="1" d="M429.4999674488199,529.5000327094011C414.4999674488199,529.5000327094011,414.4999674488199,647.5000327094011,399.4999674488199,647.5000327094011L296.4999674488199,647.5000327094011"></path><path id="kity_path_71" fill="none" stroke="rgb(115, 161, 191)" stroke-width="1" d="M750.4999674488199,826.5000327094011A219,92,0,0,0,531.4999674488199,734.5000327094011"></path><path id="kity_path_73" fill="none" stroke="rgb(115, 161, 191)" stroke-width="1" d="M433.4999674488199,734.5000327094011C418.4999674488199,734.5000327094011,418.4999674488199,696.5000327094011,403.4999674488199,696.5000327094011L348.4999674488199,696.5000327094011"></path><path id="kity_path_75" fill="none" stroke="rgb(115, 161, 191)" stroke-width="1" d="M433.4999674488199,734.5000327094011C418.4999674488199,734.5000327094011,418.4999674488199,748.5000327094011,403.4999674488199,748.5000327094011L348.4999674488199,748.5000327094011"></path><path id="kity_path_77" fill="none" stroke="rgb(115, 161, 191)" stroke-width="1" d="M433.4999674488199,734.5000327094011C418.4999674488199,734.5000327094011,418.4999674488199,800.5000327094011,403.4999674488199,800.5000327094011L253.49996744881992,800.5000327094011"></path><path id="kity_path_79" fill="none" stroke="rgb(115, 161, 191)" stroke-width="1" d="M750.4999674488199,826.5000327094011A221,61,0,0,1,529.4999674488199,887.5000327094011"></path><path id="kity_path_81" fill="none" stroke="rgb(115, 161, 191)" stroke-width="1" d="M430.4999674488199,887.5000327094011C421.4999674488199,887.5000327094011,421.4999674488199,859.5000327094011,412.4999674488199,859.5000327094011L297.4999674488199,859.5000327094011"></path><path id="kity_path_83" fill="none" stroke="rgb(115, 161, 191)" stroke-width="1" d="M430.4999674488199,887.5000327094011C419.9999674488199,887.5000327094011,419.9999674488199,913.5000327094011,409.4999674488199,913.5000327094011L283.4999674488199,913.5000327094011"></path><path id="kity_path_85" fill="none" stroke="rgb(115, 161, 191)" stroke-width="1" d="M750.4999674488199,826.5000327094011A215,231,0,0,1,535.4999674488199,1057.5000327094012"></path><path id="kity_path_87" fill="none" stroke="rgb(115, 161, 191)" stroke-width="1" d="M437.4999674488199,1057.5000327094012C422.4999674488199,1057.5000327094012,422.4999674488199,967.5000327094011,407.4999674488199,967.5000327094011L256.4999674488199,967.5000327094011"></path><path id="kity_path_89" fill="none" stroke="rgb(115, 161, 191)" stroke-width="1" d="M437.4999674488199,1057.5000327094012C422.4999674488199,1057.5000327094012,422.4999674488199,1019.5000327094011,407.4999674488199,1019.5000327094011L266.4999674488199,1019.5000327094011"></path><path id="kity_path_91" fill="none" stroke="rgb(115, 161, 191)" stroke-width="1" d="M437.4999674488199,1057.5000327094012C422.4999674488199,1057.5000327094012,422.4999674488199,1071.5000327094012,407.4999674488199,1071.5000327094012L316.4999674488199,1071.5000327094012"></path><path id="kity_path_93" fill="none" stroke="rgb(115, 161, 191)" stroke-width="1" d="M316.4999674488199,1071.5000327094012C301.4999674488199,1071.5000327094012,301.4999674488199,1071.5000327094012,286.4999674488199,1071.5000327094012L135.49996744881992,1071.5000327094012"></path><path id="kity_path_95" fill="none" stroke="rgb(115, 161, 191)" stroke-width="1" d="M437.4999674488199,1057.5000327094012C422.4999674488199,1057.5000327094012,422.4999674488199,1123.5000327094012,407.4999674488199,1123.5000327094012L317.4999674488199,1123.5000327094012"></path><path id="kity_path_97" fill="none" stroke="rgb(115, 161, 191)" stroke-width="1" d="M437.4999674488199,1057.5000327094012C422.4999674488199,1057.5000327094012,422.4999674488199,1175.5000327094012,407.4999674488199,1175.5000327094012L304.4999674488199,1175.5000327094012"></path><path id="kity_path_99" fill="none" stroke="rgb(115, 161, 191)" stroke-width="1" d="M750.4999674488199,826.5000327094011A227,428,0,0,1,523.4999674488199,1254.5000327094012"></path><path id="kity_path_101" fill="none" stroke="rgb(115, 161, 191)" stroke-width="1" d="M438.4999674488199,1254.5000327094012C415.9999674488199,1254.5000327094012,415.9999674488199,1257.5000327094012,393.4999674488199,1257.5000327094012L194.49996744881992,1257.5000327094012"></path><path id="kity_path_103" fill="none" stroke="rgb(115, 161, 191)" stroke-width="1" d="M750.4999674488199,826.5000327094011A213,541,0,0,1,537.4999674488199,1367.5000327094012"></path><path id="kity_path_105" fill="none" stroke="rgb(115, 161, 191)" stroke-width="1" d="M424.4999674488199,1367.5000327094012C409.4999674488199,1367.5000327094012,409.4999674488199,1329.5000327094012,394.4999674488199,1329.5000327094012L241.49996744881992,1329.5000327094012"></path><path id="kity_path_107" fill="none" stroke="rgb(115, 161, 191)" stroke-width="1" d="M424.4999674488199,1367.5000327094012C409.4999674488199,1367.5000327094012,409.4999674488199,1381.5000327094012,394.4999674488199,1381.5000327094012L280.4999674488199,1381.5000327094012"></path><path id="kity_path_109" fill="none" stroke="rgb(115, 161, 191)" stroke-width="1" d="M424.4999674488199,1367.5000327094012C409.4999674488199,1367.5000327094012,409.4999674488199,1433.5000327094012,394.4999674488199,1433.5000327094012L120.49996744881992,1433.5000327094012"></path><path id="kity_path_111" fill="none" stroke="rgb(115, 161, 191)" stroke-width="1" d="M750.4999674488199,826.5000327094011A223,693,0,0,1,527.4999674488199,1519.5000327094012"></path><path id="kity_path_113" fill="none" stroke="rgb(115, 161, 191)" stroke-width="1" d="M458.4999674488199,1519.5000327094012C443.4999674488199,1519.5000327094012,443.4999674488199,1507.5000327094012,428.4999674488199,1507.5000327094012L273.4999674488199,1507.5000327094012"></path><path id="kity_path_115" fill="none" stroke="rgb(115, 161, 191)" stroke-width="1" d="M458.4999674488199,1519.5000327094012C443.4999674488199,1519.5000327094012,443.4999674488199,1559.5000327094012,428.4999674488199,1559.5000327094012L235.49996744881992,1559.5000327094012"></path><path id="kity_path_117" fill="none" stroke="rgb(115, 161, 191)" stroke-width="1" d="M750.4999674488199,826.5000327094011A173,625,0,0,1,923.4999674488199,201.50003270940113"></path><path id="kity_path_119" fill="none" stroke="rgb(115, 161, 191)" stroke-width="1" d="M994.4999674488199,201.50003270940113C1009.4999674488199,201.50003270940113,1009.4999674488199,111.50003270940113,1024.49996744882,111.50003270940113L1148.49996744882,111.50003270940113"></path><path id="kity_path_121" fill="none" stroke="rgb(115, 161, 191)" stroke-width="1" d="M994.4999674488199,201.50003270940113C1009.4999674488199,201.50003270940113,1009.4999674488199,163.50003270940113,1024.49996744882,163.50003270940113L1205.49996744882,163.50003270940113"></path><path id="kity_path_123" fill="none" stroke="rgb(115, 161, 191)" stroke-width="1" d="M994.4999674488199,201.50003270940113C1009.4999674488199,201.50003270940113,1009.4999674488199,215.50003270940113,1024.49996744882,215.50003270940113L1133.49996744882,215.50003270940113"></path><path id="kity_path_125" fill="none" stroke="rgb(115, 161, 191)" stroke-width="1" d="M994.4999674488199,201.50003270940113C1009.4999674488199,201.50003270940113,1009.4999674488199,267.5000327094011,1024.49996744882,267.5000327094011L1192.49996744882,267.5000327094011"></path><path id="kity_path_127" fill="none" stroke="rgb(115, 161, 191)" stroke-width="1" d="M994.4999674488199,201.50003270940113C1009.4999674488199,201.50003270940113,1009.4999674488199,319.5000327094011,1024.49996744882,319.5000327094011L1108.49996744882,319.5000327094011"></path><path id="kity_path_129" fill="none" stroke="rgb(115, 161, 191)" stroke-width="1" d="M750.4999674488199,826.5000327094011A181,248,0,0,1,931.4999674488199,578.5000327094011"></path><path id="kity_path_131" fill="none" stroke="rgb(115, 161, 191)" stroke-width="1" d="M1016.4999674488199,578.5000327094011C1039.99996744882,578.5000327094011,1039.99996744882,496.5000327094011,1063.49996744882,496.5000327094011L1154.49996744882,496.5000327094011"></path><path id="kity_path_133" fill="none" stroke="rgb(115, 161, 191)" stroke-width="1" d="M1154.49996744882,496.5000327094011C1183.99996744882,496.5000327094011,1183.99996744882,315.5000327094011,1213.49996744882,315.5000327094011L1499.49996744882,315.5000327094011"></path><path id="kity_path_135" fill="none" stroke="rgb(115, 161, 191)" stroke-width="1" d="M1154.49996744882,496.5000327094011C1190.99996744882,496.5000327094011,1190.99996744882,362.5000327094011,1227.49996744882,362.5000327094011L1560.49996744882,362.5000327094011"></path><path id="kity_path_137" fill="none" stroke="rgb(115, 161, 191)" stroke-width="1" d="M1154.49996744882,496.5000327094011C1188.99996744882,496.5000327094011,1188.99996744882,410.5000327094011,1223.49996744882,410.5000327094011L1450.49996744882,410.5000327094011"></path><path id="kity_path_139" fill="none" stroke="rgb(115, 161, 191)" stroke-width="1" d="M1154.49996744882,496.5000327094011C1198.99996744882,496.5000327094011,1198.99996744882,463.5000327094011,1243.49996744882,463.5000327094011L1390.49996744882,463.5000327094011"></path><path id="kity_path_141" fill="none" stroke="rgb(115, 161, 191)" stroke-width="1" d="M1154.49996744882,496.5000327094011C1205.99996744882,496.5000327094011,1205.99996744882,513.5000327094011,1257.49996744882,513.5000327094011L1428.49996744882,513.5000327094011"></path><path id="kity_path_143" fill="none" stroke="rgb(115, 161, 191)" stroke-width="1" d="M1016.4999674488199,578.5000327094011C1041.99996744882,578.5000327094011,1041.99996744882,613.5000327094011,1067.49996744882,613.5000327094011L1158.49996744882,613.5000327094011"></path><path id="kity_path_145" fill="none" stroke="rgb(115, 161, 191)" stroke-width="1" d="M1158.49996744882,613.5000327094011C1185.49996744882,613.5000327094011,1185.49996744882,572.5000327094011,1212.49996744882,572.5000327094011L1318.49996744882,572.5000327094011"></path><path id="kity_path_147" fill="none" stroke="rgb(115, 161, 191)" stroke-width="1" d="M1158.49996744882,613.5000327094011C1178.49996744882,613.5000327094011,1178.49996744882,630.5000327094011,1198.49996744882,630.5000327094011L1353.49996744882,630.5000327094011"></path><path id="kity_path_149" fill="none" stroke="rgb(115, 161, 191)" stroke-width="1" d="M750.4999674488199,826.5000327094011A185,138,0,0,1,935.4999674488199,688.5000327094011"></path><path id="kity_path_151" fill="none" stroke="rgb(115, 161, 191)" stroke-width="1" d="M1006.4999674488199,688.5000327094011C1021.4999674488199,688.5000327094011,1021.4999674488199,676.5000327094011,1036.49996744882,676.5000327094011L1114.49996744882,676.5000327094011"></path><path id="kity_path_153" fill="none" stroke="rgb(115, 161, 191)" stroke-width="1" d="M1006.4999674488199,688.5000327094011C1021.4999674488199,688.5000327094011,1021.4999674488199,728.5000327094011,1036.49996744882,728.5000327094011L1204.49996744882,728.5000327094011"></path><path id="kity_path_155" fill="none" stroke="rgb(115, 161, 191)" stroke-width="1" d="M750.4999674488199,826.5000327094011A185,31,0,0,1,935.4999674488199,795.5000327094011"></path><path id="kity_path_157" fill="none" stroke="rgb(115, 161, 191)" stroke-width="1" d="M1006.4999674488199,795.5000327094011C1021.4999674488199,795.5000327094011,1021.4999674488199,783.5000327094011,1036.49996744882,783.5000327094011L1114.49996744882,783.5000327094011"></path><path id="kity_path_159" fill="none" stroke="rgb(115, 161, 191)" stroke-width="1" d="M1006.4999674488199,795.5000327094011C1021.4999674488199,795.5000327094011,1021.4999674488199,835.5000327094011,1036.49996744882,835.5000327094011L1204.49996744882,835.5000327094011"></path><path id="kity_path_161" fill="none" stroke="rgb(115, 161, 191)" stroke-width="1" d="M750.4999674488199,826.5000327094011A194,68,0,0,0,944.4999674488199,894.5000327094011"></path><path id="kity_path_163" fill="none" stroke="rgb(115, 161, 191)" stroke-width="1" d="M1001.4999674488199,894.5000327094011C1016.4999674488199,894.5000327094011,1016.4999674488199,908.5000327094011,1031.49996744882,908.5000327094011L1109.49996744882,908.5000327094011"></path><path id="kity_path_165" fill="none" stroke="rgb(115, 161, 191)" stroke-width="1" d="M750.4999674488199,826.5000327094011A192,151,0,0,0,942.4999674488199,977.5000327094011"></path><path id="kity_path_167" fill="none" stroke="rgb(115, 161, 191)" stroke-width="1" d="M1012.4999674488199,977.5000327094011C1027.49996744882,977.5000327094011,1027.49996744882,991.5000327094011,1042.49996744882,991.5000327094011L1120.49996744882,991.5000327094011"></path><path id="kity_path_169" fill="none" stroke="rgb(115, 161, 191)" stroke-width="1" d="M750.4999674488199,826.5000327094011A188,247,0,0,0,938.4999674488199,1073.5000327094012"></path><path id="kity_path_171" fill="none" stroke="rgb(115, 161, 191)" stroke-width="1" d="M1009.4999674488199,1073.5000327094012C1024.49996744882,1073.5000327094012,1024.49996744882,1087.5000327094012,1039.49996744882,1087.5000327094012L1202.49996744882,1087.5000327094012"></path><path id="kity_path_173" fill="none" stroke="rgb(115, 161, 191)" stroke-width="1" d="M750.4999674488199,826.5000327094011A189,349,0,0,0,939.4999674488199,1175.5000327094012"></path><path id="kity_path_175" fill="none" stroke="rgb(115, 161, 191)" stroke-width="1" d="M1010.4999674488199,1175.5000327094012C1025.49996744882,1175.5000327094012,1025.49996744882,1189.5000327094012,1040.49996744882,1189.5000327094012L1131.49996744882,1189.5000327094012"></path><path id="kity_path_177" fill="none" stroke="rgb(115, 161, 191)" stroke-width="1" d="M750.4999674488199,826.5000327094011A180,478,0,0,0,930.4999674488199,1304.5000327094012"></path><path id="kity_path_179" fill="none" stroke="rgb(115, 161, 191)" stroke-width="1" d="M1015.4999674488199,1304.5000327094012C1030.49996744882,1304.5000327094012,1030.49996744882,1240.5000327094012,1045.49996744882,1240.5000327094012L1124.49996744882,1240.5000327094012"></path><path id="kity_path_181" fill="none" stroke="rgb(115, 161, 191)" stroke-width="1" d="M1015.4999674488199,1304.5000327094012C1030.49996744882,1304.5000327094012,1030.49996744882,1292.5000327094012,1045.49996744882,1292.5000327094012L1112.49996744882,1292.5000327094012"></path><path id="kity_path_183" fill="none" stroke="rgb(115, 161, 191)" stroke-width="1" d="M1015.4999674488199,1304.5000327094012C1030.49996744882,1304.5000327094012,1030.49996744882,1344.5000327094012,1045.49996744882,1344.5000327094012L1135.49996744882,1344.5000327094012"></path><path id="kity_path_185" fill="none" stroke="rgb(115, 161, 191)" stroke-width="1" d="M1015.4999674488199,1304.5000327094012C1030.49996744882,1304.5000327094012,1030.49996744882,1396.5000327094012,1045.49996744882,1396.5000327094012L1124.49996744882,1396.5000327094012"></path></g><g id="minder_node1"><path id="node_outline1" fill="rgb(115, 161, 191)" stroke="rgb(57, 80, 96)" d="M715.4999674488199,806.5000327094011h70a5,5,0,0,1,5,5v30a5,5,0,0,1,-5,5h-70a5,5,0,0,1,-5,-5v-30a5,5,0,0,1,5,-5z" stroke-width="3"></path><g id="node_text1" fill="white"><text id="kity_text_22" text-rendering="inherit" font-size="16" dy=".8em" y="818.5000327094011" x="734.4999674488199">算法</text></g></g><g id="kity_g_12"><path id="kity_path_13" fill="none" stroke="none" d="M734.4999674488199,826.5000327094011h0v0h0z"></path></g><g id="kity_g_14"><path id="kity_path_15" fill="none" stroke="none" d="M734.4999674488199,826.5000327094011h0v0h0z"></path><path id="kity_path_16" fill="none" stroke="none"></path></g><g id="minder_node2"><g id="node_expander12" style="cursor: pointer;"><path id="kity_path_454" fill="white" stroke="gray" d="M454.49997136972206,233.5000410638055A6,6,0,1,1,442.49997136972206,233.5000410638055A6,6,0,1,1,454.49997136972206,233.5000410638055"></path><path id="kity_path_455" fill="none" stroke="gray" d="M443.99997136972206,233.5000410638055L452.99997136972206,233.5000410638055"></path></g><path id="node_outline13" fill="rgb(238, 243, 246)" stroke="rgb(115, 161, 191)" d="M458.4999710977081,220.5000410638055h49a3,3,0,0,1,3,3v20a3,3,0,0,1,-3,3h-49a3,3,0,0,1,-3,-3v-20a3,3,0,0,1,3,-3z" stroke-width="1"></path><g id="node_text13" fill="black"><text id="kity_text_209" text-rendering="inherit" font-size="14" dy=".8em" y="226.5000410638055" x="475.4999710977081">树</text></g></g><g id="minder_node3"><g id="node_expander9" style="cursor: pointer;"><path id="kity_path_445" fill="white" stroke="gray" d="M306.49997356317306,161.50004207816812A6,6,0,1,1,294.49997356317306,161.50004207816812A6,6,0,1,1,306.49997356317306,161.50004207816812"></path><path id="kity_path_446" fill="none" stroke="gray" d="M295.99997356317306,161.50004207816812L304.99997356317306,161.50004207816812"></path></g><path id="node_outline10" fill="none" stroke="none" d="M311.4999733377591,150.50004207816812h46a5,5,0,0,1,5,5v12a5,5,0,0,1,-5,5h-46a5,5,0,0,1,-5,-5v-12a5,5,0,0,1,5,-5z"></path><g id="node_text10" fill="black"><text id="kity_text_203" text-rendering="inherit" font-size="12" dy=".8em" y="155.50004207816812" x="316.4999733377591">二叉树</text></g></g><g id="minder_node4"><g id="node_expander3" style="cursor: pointer;"><path id="kity_path_427" fill="white" stroke="gray" d="M151.49997574687063,58.50004352927033A6,6,0,1,1,139.49997574687063,58.50004352927033A6,6,0,1,1,151.49997574687063,58.50004352927033"></path><path id="kity_path_428" fill="none" stroke="gray" d="M140.99997574687063,58.50004352927033L149.99997574687063,58.50004352927033"></path></g><path id="node_outline4" fill="none" stroke="none" d="M156.4999755214567,47.50004352927033h35a5,5,0,0,1,5,5v12a5,5,0,0,1,-5,5h-35a5,5,0,0,1,-5,-5v-12a5,5,0,0,1,5,-5z"></path><g id="node_text4" fill="black"><text id="kity_text_191" text-rendering="inherit" font-size="12" dy=".8em" y="52.50004352927033" x="161.4999755214567">遍历</text></g></g><g id="minder_node5"><g id="node_expander1" display="none" style="cursor: pointer;"><path id="kity_path_421" fill="white" stroke="gray" d="M28.499977479740323,31.500043909656256A6,6,0,1,1,16.499977479740323,31.500043909656256A6,6,0,1,1,28.499977479740323,31.500043909656256"></path><path id="kity_path_422" fill="none" stroke="gray"></path></g><path id="node_outline2" fill="none" stroke="none" d="M33.49997725432638,20.500043909656256h32a5,5,0,0,1,5,5v12a5,5,0,0,1,-5,5h-32a5,5,0,0,1,-5,-5v-12a5,5,0,0,1,5,-5z"></path><g id="node_text2" fill="black"><text id="kity_text_187" text-rendering="inherit" font-size="12" dy=".8em" y="25.500043909656256" x="38.49997725432638">DFS</text></g></g><g id="minder_node6"><g id="node_expander2" display="none" style="cursor: pointer;"><path id="kity_path_424" fill="white" stroke="gray" d="M27.499977493828737,79.50004323341443A6,6,0,1,1,15.499977493828737,79.50004323341443A6,6,0,1,1,27.499977493828737,79.50004323341443"></path><path id="kity_path_425" fill="none" stroke="gray"></path></g><path id="node_outline3" fill="none" stroke="none" d="M32.499977268414796,68.50004323341443h31a5,5,0,0,1,5,5v12a5,5,0,0,1,-5,5h-31a5,5,0,0,1,-5,-5v-12a5,5,0,0,1,5,-5z"></path><g id="node_text3" fill="black"><text id="kity_text_189" text-rendering="inherit" font-size="12" dy=".8em" y="73.50004323341443" x="37.499977268414796">BFS</text></g></g><g id="minder_node7"><g id="node_expander4" display="none" style="cursor: pointer;"><path id="kity_path_430" fill="white" stroke="gray" d="M140.49997590184262,116.50004271214482A6,6,0,1,1,128.49997590184262,116.50004271214482A6,6,0,1,1,140.49997590184262,116.50004271214482"></path><path id="kity_path_431" fill="none" stroke="gray"></path></g><path id="node_outline5" fill="none" stroke="none" d="M145.49997567642868,105.50004271214482h70a5,5,0,0,1,5,5v12a5,5,0,0,1,-5,5h-70a5,5,0,0,1,-5,-5v-12a5,5,0,0,1,5,-5z"></path><g id="node_text5" fill="black"><text id="kity_text_193" text-rendering="inherit" font-size="12" dy=".8em" y="110.50004271214482" x="150.49997567642868">二叉搜索树</text></g></g><g id="minder_node8"><g id="node_expander7" style="cursor: pointer;"><path id="kity_path_439" fill="white" stroke="gray" d="M145.4999758314009,172.5000419231959A6,6,0,1,1,133.4999758314009,172.5000419231959A6,6,0,1,1,145.4999758314009,172.5000419231959"></path><path id="kity_path_440" fill="none" stroke="gray" d="M134.9999758314009,172.5000419231959L143.9999758314009,172.5000419231959"></path></g><path id="node_outline8" fill="none" stroke="none" d="M150.49997560598695,161.5000419231959h70a5,5,0,0,1,5,5v12a5,5,0,0,1,-5,5h-70a5,5,0,0,1,-5,-5v-12a5,5,0,0,1,5,-5z"></path><g id="node_text8" fill="black"><text id="kity_text_199" text-rendering="inherit" font-size="12" dy=".8em" y="166.5000419231959" x="155.49997560598695">平衡二叉树</text></g></g><g id="minder_node9"><g id="node_expander5" display="none" style="cursor: pointer;"><path id="kity_path_433" fill="white" stroke="gray" d="M24.499977536093752,148.50004226131693A6,6,0,1,1,12.499977536093752,148.50004226131693A6,6,0,1,1,24.499977536093752,148.50004226131693"></path><path id="kity_path_434" fill="none" stroke="gray"></path></g><path id="node_outline6" fill="none" stroke="none" d="M29.49997731067981,137.50004226131693h48a5,5,0,0,1,5,5v12a5,5,0,0,1,-5,5h-48a5,5,0,0,1,-5,-5v-12a5,5,0,0,1,5,-5z"></path><g id="node_text6" fill="black"><text id="kity_text_195" text-rendering="inherit" font-size="12" dy=".8em" y="142.50004226131693" x="34.49997731067981">AVL 树</text></g></g><g id="minder_node10"><g id="node_expander6" display="none" style="cursor: pointer;"><path id="kity_path_436" fill="white" stroke="gray" d="M21.49997757835888,192.50004164142854A6,6,0,1,1,9.499977578358878,192.50004164142854A6,6,0,1,1,21.49997757835888,192.50004164142854"></path><path id="kity_path_437" fill="none" stroke="gray"></path></g><path id="node_outline7" fill="none" stroke="none" d="M26.49997735294494,181.50004164142854h46a5,5,0,0,1,5,5v12a5,5,0,0,1,-5,5h-46a5,5,0,0,1,-5,-5v-12a5,5,0,0,1,5,-5z"></path><g id="node_text7" fill="black"><text id="kity_text_197" text-rendering="inherit" font-size="12" dy=".8em" y="186.50004164142854" x="31.49997735294494">红黑树</text></g></g><g id="minder_node11"><g id="node_expander8" display="none" style="cursor: pointer;"><path id="kity_path_442" fill="white" stroke="gray" d="M153.4999757186938,223.50004120468896A6,6,0,1,1,141.4999757186938,223.50004120468896A6,6,0,1,1,153.4999757186938,223.50004120468896"></path><path id="kity_path_443" fill="none" stroke="gray"></path></g><path id="node_outline9" fill="none" stroke="none" d="M158.49997549327986,212.50004120468896h34a5,5,0,0,1,5,5v12a5,5,0,0,1,-5,5h-34a5,5,0,0,1,-5,-5v-12a5,5,0,0,1,5,-5z"></path><g id="node_text9" fill="black"><text id="kity_text_201" text-rendering="inherit" font-size="12" dy=".8em" y="217.50004120468896" x="163.49997549327986">剪枝</text></g></g><g id="minder_node12"><g id="node_expander11" style="cursor: pointer;"><path id="kity_path_451" fill="white" stroke="gray" d="M299.4999736617916,258.50004071159594A6,6,0,1,1,287.4999736617916,258.50004071159594A6,6,0,1,1,299.4999736617916,258.50004071159594"></path><path id="kity_path_452" fill="none" stroke="gray" d="M288.9999736617916,258.50004071159594L297.9999736617916,258.50004071159594"></path></g><path id="node_outline12" fill="none" stroke="none" d="M304.4999734363777,247.50004071159594h46a5,5,0,0,1,5,5v12a5,5,0,0,1,-5,5h-46a5,5,0,0,1,-5,-5v-12a5,5,0,0,1,5,-5z"></path><g id="node_text12" fill="black"><text id="kity_text_207" text-rendering="inherit" font-size="12" dy=".8em" y="252.50004071159594" x="309.4999734363777">字典树</text></g></g><g id="minder_node13"><g id="node_expander10" display="none" style="cursor: pointer;"><path id="kity_path_448" fill="white" stroke="gray" d="M144.4999758454892,269.50004055662396A6,6,0,1,1,132.4999758454892,269.50004055662396A6,6,0,1,1,144.4999758454892,269.50004055662396"></path><path id="kity_path_449" fill="none" stroke="gray"></path></g><path id="node_outline11" fill="none" stroke="none" d="M149.49997562007525,258.50004055662396h70a5,5,0,0,1,5,5v12a5,5,0,0,1,-5,5h-70a5,5,0,0,1,-5,-5v-12a5,5,0,0,1,5,-5z"></path><g id="node_text11" fill="black"><text id="kity_text_205" text-rendering="inherit" font-size="12" dy=".8em" y="263.50004055662396" x="154.49997562007525">空间换时间</text></g></g><g id="minder_node14"><g id="node_expander14" style="cursor: pointer;"><path id="kity_path_460" fill="white" stroke="gray" d="M449.4999714401639,366.5000391900519A6,6,0,1,1,437.4999714401639,366.5000391900519A6,6,0,1,1,449.4999714401639,366.5000391900519"></path><path id="kity_path_461" fill="none" stroke="gray" d="M438.9999714401639,366.5000391900519L447.9999714401639,366.5000391900519"></path></g><path id="node_outline15" fill="rgb(238, 243, 246)" stroke="rgb(115, 161, 191)" d="M453.49997116814995,353.5000391900519h48a3,3,0,0,1,3,3v20a3,3,0,0,1,-3,3h-48a3,3,0,0,1,-3,-3v-20a3,3,0,0,1,3,-3z" stroke-width="1"></path><g id="node_text15" fill="black"><text id="kity_text_213" text-rendering="inherit" font-size="14" dy=".8em" y="359.5000391900519" x="470.49997116814995">图</text></g></g><g id="minder_node15"><g id="node_expander13" display="none" style="cursor: pointer;"><path id="kity_path_457" fill="white" stroke="gray" d="M333.499974483252,352.50003938728906A6,6,0,1,1,321.499974483252,352.50003938728906A6,6,0,1,1,333.499974483252,352.50003938728906"></path><path id="kity_path_458" fill="none" stroke="gray"></path></g><path id="node_outline14" fill="none" stroke="none" d="M126.49997594410786,341.50003938728906h190a5,5,0,0,1,5,5v12a5,5,0,0,1,-5,5h-190a5,5,0,0,1,-5,-5v-12a5,5,0,0,1,5,-5z"></path><g id="node_text14" fill="black"><text id="kity_text_211" text-rendering="inherit" font-size="12" dy=".8em" y="346.50003938728906" x="131.49997594410786">遍历时需要记录已经访问过的结点</text></g></g><g id="minder_node16"><g id="node_expander20" style="cursor: pointer;"><path id="kity_path_478" fill="white" stroke="gray" d="M428.4999717360197,529.5000368936473A6,6,0,1,1,416.4999717360197,529.5000368936473A6,6,0,1,1,428.4999717360197,529.5000368936473"></path><path id="kity_path_479" fill="none" stroke="gray" d="M417.9999717360197,529.5000368936473L426.9999717360197,529.5000368936473"></path></g><path id="node_outline21" fill="rgb(238, 243, 246)" stroke="rgb(115, 161, 191)" d="M432.49997146400574,516.5000368936473h104a3,3,0,0,1,3,3v20a3,3,0,0,1,-3,3h-104a3,3,0,0,1,-3,-3v-20a3,3,0,0,1,3,-3z" stroke-width="1"></path><g id="node_text21" fill="black"><text id="kity_text_225" text-rendering="inherit" font-size="14" dy=".8em" y="522.5000368936473" x="449.49997146400574">递归、分治</text></g></g><g id="minder_node17"><g id="node_expander15" display="none" style="cursor: pointer;"><path id="kity_path_463" fill="white" stroke="gray" d="M401.4999722247778,425.500038358838A6,6,0,1,1,389.4999722247778,425.500038358838A6,6,0,1,1,401.4999722247778,425.500038358838"></path><path id="kity_path_464" fill="none" stroke="gray"></path></g><path id="node_outline16" fill="none" stroke="none" d="M326.4999731264336,414.500038358838h58a5,5,0,0,1,5,5v12a5,5,0,0,1,-5,5h-58a5,5,0,0,1,-5,-5v-12a5,5,0,0,1,5,-5z"></path><g id="node_text16" fill="black"><text id="kity_text_215" text-rendering="inherit" font-size="12" dy=".8em" y="419.500038358838" x="331.4999731264336">盗梦空间</text></g></g><g id="minder_node18"><g id="node_expander16" display="none" style="cursor: pointer;"><path id="kity_path_466" fill="white" stroke="gray" d="M401.4999708159408,477.5000376262427A6,6,0,1,1,389.4999708159408,477.5000376262427A6,6,0,1,1,401.4999708159408,477.5000376262427"></path><path id="kity_path_467" fill="none" stroke="gray"></path></g><path id="node_outline17" fill="none" stroke="none" d="M325.49997314052194,466.5000376262427h59a5,5,0,0,1,5,5v12a5,5,0,0,1,-5,5h-59a5,5,0,0,1,-5,-5v-12a5,5,0,0,1,5,-5z"></path><g id="node_text17" fill="black"><text id="kity_text_217" text-rendering="inherit" font-size="12" dy=".8em" y="471.5000376262427" x="330.49997314052194">终止状态</text></g></g><g id="minder_node19"><g id="node_expander17" display="none" style="cursor: pointer;"><path id="kity_path_469" fill="white" stroke="gray" d="M401.4999708159408,529.5000368936473A6,6,0,1,1,389.4999708159408,529.5000368936473A6,6,0,1,1,401.4999708159408,529.5000368936473"></path><path id="kity_path_470" fill="none" stroke="gray"></path></g><path id="node_outline18" fill="none" stroke="none" d="M325.49997314052194,518.5000368936473h59a5,5,0,0,1,5,5v12a5,5,0,0,1,-5,5h-59a5,5,0,0,1,-5,-5v-12a5,5,0,0,1,5,-5z"></path><g id="node_text18" fill="black"><text id="kity_text_219" text-rendering="inherit" font-size="12" dy=".8em" y="523.5000368936473" x="330.49997314052194">本层处理</text></g></g><g id="minder_node20"><g id="node_expander18" display="none" style="cursor: pointer;"><path id="kity_path_472" fill="white" stroke="gray" d="M401.4999704908245,581.5000361610521A6,6,0,1,1,389.4999704908245,581.5000361610521A6,6,0,1,1,401.4999704908245,581.5000361610521"></path><path id="kity_path_473" fill="none" stroke="gray"></path></g><path id="node_outline19" fill="none" stroke="none" d="M310.4999733518475,570.5000361610521h74a5,5,0,0,1,5,5v12a5,5,0,0,1,-5,5h-74a5,5,0,0,1,-5,-5v-12a5,5,0,0,1,5,-5z"></path><g id="node_text19" fill="black"><text id="kity_text_221" text-rendering="inherit" font-size="12" dy=".8em" y="575.5000361610521" x="315.4999733518475">Drill Down&#xa0;</text></g></g><g id="minder_node21"><g id="node_expander19" display="none" style="cursor: pointer;"><path id="kity_path_475" fill="white" stroke="gray" d="M401.49997168291736,633.5000354284567A6,6,0,1,1,389.49997168291736,633.5000354284567A6,6,0,1,1,401.49997168291736,633.5000354284567"></path><path id="kity_path_476" fill="none" stroke="gray"></path></g><path id="node_outline20" fill="none" stroke="none" d="M301.4999734786428,622.5000354284567h83a5,5,0,0,1,5,5v12a5,5,0,0,1,-5,5h-83a5,5,0,0,1,-5,-5v-12a5,5,0,0,1,5,-5z"></path><g id="node_text20" fill="black"><text id="kity_text_223" text-rendering="inherit" font-size="12" dy=".8em" y="627.5000354284567" x="306.4999734786428">本层状态清理 </text></g></g><g id="minder_node22"><g id="node_expander24" style="cursor: pointer;"><path id="kity_path_490" fill="white" stroke="gray" d="M432.4999716796662,734.5000340055312A6,6,0,1,1,420.4999716796662,734.5000340055312A6,6,0,1,1,432.4999716796662,734.5000340055312"></path><path id="kity_path_491" fill="none" stroke="gray" d="M421.9999716796662,734.5000340055312L430.9999716796662,734.5000340055312"></path></g><path id="node_outline25" fill="rgb(238, 243, 246)" stroke="rgb(115, 161, 191)" d="M436.49997140765225,721.5000340055312h90a3,3,0,0,1,3,3v20a3,3,0,0,1,-3,3h-90a3,3,0,0,1,-3,-3v-20a3,3,0,0,1,3,-3z" stroke-width="1"></path><g id="node_text25" fill="black"><text id="kity_text_233" text-rendering="inherit" font-size="14" dy=".8em" y="727.5000340055312" x="453.49997140765225">二分查找</text></g></g><g id="minder_node23"><g id="node_expander21" display="none" style="cursor: pointer;"><path id="kity_path_481" fill="white" stroke="gray" d="M405.4999733605171,682.5000347381266A6,6,0,1,1,393.4999733605171,682.5000347381266A6,6,0,1,1,405.4999733605171,682.5000347381266"></path><path id="kity_path_482" fill="none" stroke="gray"></path></g><path id="node_outline22" fill="none" stroke="none" d="M353.4999727460475,671.5000347381266h35a5,5,0,0,1,5,5v12a5,5,0,0,1,-5,5h-35a5,5,0,0,1,-5,-5v-12a5,5,0,0,1,5,-5z"></path><g id="node_text22" fill="black"><text id="kity_text_227" text-rendering="inherit" font-size="12" dy=".8em" y="676.5000347381266" x="358.4999727460475">有序</text></g></g><g id="minder_node24"><g id="node_expander22" display="none" style="cursor: pointer;"><path id="kity_path_484" fill="white" stroke="gray" d="M405.4999733605171,734.5000340055312A6,6,0,1,1,393.4999733605171,734.5000340055312A6,6,0,1,1,405.4999733605171,734.5000340055312"></path><path id="kity_path_485" fill="none" stroke="gray"></path></g><path id="node_outline23" fill="none" stroke="none" d="M353.4999727460475,723.5000340055312h35a5,5,0,0,1,5,5v12a5,5,0,0,1,-5,5h-35a5,5,0,0,1,-5,-5v-12a5,5,0,0,1,5,-5z"></path><g id="node_text23" fill="black"><text id="kity_text_229" text-rendering="inherit" font-size="12" dy=".8em" y="728.5000340055312" x="358.4999727460475">有界</text></g></g><g id="minder_node25"><g id="node_expander23" display="none" style="cursor: pointer;"><path id="kity_path_487" fill="white" stroke="gray" d="M405.49997476935414,786.500033272936A6,6,0,1,1,393.49997476935414,786.500033272936A6,6,0,1,1,405.49997476935414,786.500033272936"></path><path id="kity_path_488" fill="none" stroke="gray"></path></g><path id="node_outline24" fill="none" stroke="none" d="M258.4999740844428,775.500033272936h130a5,5,0,0,1,5,5v12a5,5,0,0,1,-5,5h-130a5,5,0,0,1,-5,-5v-12a5,5,0,0,1,5,-5z"></path><g id="node_text24" fill="black"><text id="kity_text_231" text-rendering="inherit" font-size="12" dy=".8em" y="780.500033272936" x="263.4999740844428">能够通过索引随机访问</text></g></g><g id="minder_node26"><g id="node_expander27" style="cursor: pointer;"><path id="kity_path_499" fill="white" stroke="gray" d="M429.49997172193133,887.5000318500105A6,6,0,1,1,417.49997172193133,887.5000318500105A6,6,0,1,1,429.49997172193133,887.5000318500105"></path><path id="kity_path_500" fill="none" stroke="gray" d="M418.99997172193133,887.5000318500105L427.99997172193133,887.5000318500105"></path></g><path id="node_outline28" fill="rgb(238, 243, 246)" stroke="rgb(115, 161, 191)" d="M433.4999714499174,874.5000318500105h91a3,3,0,0,1,3,3v20a3,3,0,0,1,-3,3h-91a3,3,0,0,1,-3,-3v-20a3,3,0,0,1,3,-3z" stroke-width="1"></path><g id="node_text28" fill="black"><text id="kity_text_239" text-rendering="inherit" font-size="14" dy=".8em" y="880.5000318500105" x="450.4999714499174">贪心算法</text></g></g><g id="minder_node27"><g id="node_expander25" display="none" style="cursor: pointer;"><path id="kity_path_493" fill="white" stroke="gray" d="M414.4999754011634,845.500032441722A6,6,0,1,1,402.4999754011634,845.500032441722A6,6,0,1,1,414.4999754011634,845.500032441722"></path><path id="kity_path_494" fill="none" stroke="gray"></path></g><path id="node_outline26" fill="none" stroke="none" d="M302.4999734645545,834.500032441722h95a5,5,0,0,1,5,5v12a5,5,0,0,1,-5,5h-95a5,5,0,0,1,-5,-5v-12a5,5,0,0,1,5,-5z"></path><g id="node_text26" fill="black"><text id="kity_text_235" text-rendering="inherit" font-size="12" dy=".8em" y="839.500032441722" x="307.4999734645545">判断能不能贪心</text></g></g><g id="minder_node28"><g id="node_expander26" display="none" style="cursor: pointer;"><path id="kity_path_496" fill="white" stroke="gray" d="M411.4999738178473,899.5000316809501A6,6,0,1,1,399.4999738178473,899.5000316809501A6,6,0,1,1,411.4999738178473,899.5000316809501"></path><path id="kity_path_497" fill="none" stroke="gray"></path></g><path id="node_outline27" fill="none" stroke="none" d="M288.49997366179167,888.5000316809501h106a5,5,0,0,1,5,5v12a5,5,0,0,1,-5,5h-106a5,5,0,0,1,-5,-5v-12a5,5,0,0,1,5,-5z"></path><g id="node_text27" fill="black"><text id="kity_text_237" text-rendering="inherit" font-size="12" dy=".8em" y="893.5000316809501" x="293.49997366179167">弱化版的动态规划</text></g></g><g id="minder_node29"><g id="node_expander34" style="cursor: pointer;"><path id="kity_path_520" fill="white" stroke="gray" d="M436.49997162331266,1057.5000294549873A6,6,0,1,1,424.49997162331266,1057.5000294549873A6,6,0,1,1,436.49997162331266,1057.5000294549873"></path><path id="kity_path_521" fill="none" stroke="gray" d="M425.99997162331266,1057.5000294549873L434.99997162331266,1057.5000294549873"></path></g><path id="node_outline35" fill="rgb(238, 243, 246)" stroke="rgb(115, 161, 191)" d="M440.4999713512987,1044.5000294549873h90a3,3,0,0,1,3,3v20a3,3,0,0,1,-3,3h-90a3,3,0,0,1,-3,-3v-20a3,3,0,0,1,3,-3z" stroke-width="1"></path><g id="node_text35" fill="black"><text id="kity_text_253" text-rendering="inherit" font-size="14" dy=".8em" y="1050.5000294549873" x="457.4999713512987">动态规划</text></g></g><g id="minder_node30"><g id="node_expander28" display="none" style="cursor: pointer;"><path id="kity_path_502" fill="white" stroke="gray" d="M409.49996636835067,953.500030920178A6,6,0,1,1,397.49996636835067,953.500030920178A6,6,0,1,1,409.49996636835067,953.500030920178"></path><path id="kity_path_503" fill="none" stroke="gray"></path></g><path id="node_outline29" fill="none" stroke="none" d="M261.49997404217766,942.500030920178h131a5,5,0,0,1,5,5v12a5,5,0,0,1,-5,5h-131a5,5,0,0,1,-5,-5v-12a5,5,0,0,1,5,-5z"></path><g id="node_text29" fill="black"><text id="kity_text_241" text-rendering="inherit" font-size="12" dy=".8em" y="947.500030920178" x="266.49997404217766">简单版本是递归加缓存</text></g></g><g id="minder_node31"><g id="node_expander29" display="none" style="cursor: pointer;"><path id="kity_path_505" fill="white" stroke="gray" d="M409.4999665850948,1005.5000301875826A6,6,0,1,1,397.4999665850948,1005.5000301875826A6,6,0,1,1,409.4999665850948,1005.5000301875826"></path><path id="kity_path_506" fill="none" stroke="gray"></path></g><path id="node_outline30" fill="none" stroke="none" d="M271.4999739012939,994.5000301875826h121a5,5,0,0,1,5,5v12a5,5,0,0,1,-5,5h-121a5,5,0,0,1,-5,-5v-12a5,5,0,0,1,5,-5z"></path><g id="node_text30" fill="black"><text id="kity_text_243" text-rendering="inherit" font-size="12" dy=".8em" y="999.5000301875826" x="276.4999739012939">高级版本是递推公式&#xa0;</text></g></g><g id="minder_node32"><g id="node_expander31" style="cursor: pointer;"><path id="kity_path_511" fill="white" stroke="gray" d="M409.49997460462856,1057.5000294549873A6,6,0,1,1,397.49997460462856,1057.5000294549873A6,6,0,1,1,409.49997460462856,1057.5000294549873"></path><path id="kity_path_512" fill="none" stroke="gray" d="M398.99997460462856,1057.5000294549873L407.99997460462856,1057.5000294549873"></path></g><path id="node_outline32" fill="none" stroke="none" d="M321.4999731968754,1046.5000294549873h71a5,5,0,0,1,5,5v12a5,5,0,0,1,-5,5h-71a5,5,0,0,1,-5,-5v-12a5,5,0,0,1,5,-5z"></path><g id="node_text32" fill="black"><text id="kity_text_247" text-rendering="inherit" font-size="12" dy=".8em" y="1051.5000294549873" x="326.4999731968754">状态的定义</text></g></g><g id="minder_node33"><g id="node_expander30" display="none" style="cursor: pointer;"><path id="kity_path_508" fill="white" stroke="gray" d="M288.49996807304353,1057.5000294549873A6,6,0,1,1,276.49996807304353,1057.5000294549873A6,6,0,1,1,288.49996807304353,1057.5000294549873"></path><path id="kity_path_509" fill="none" stroke="gray"></path></g><path id="node_outline31" fill="none" stroke="none" d="M140.49997574687052,1046.5000294549873h131a5,5,0,0,1,5,5v12a5,5,0,0,1,-5,5h-131a5,5,0,0,1,-5,-5v-12a5,5,0,0,1,5,-5z"></path><g id="node_text31" fill="black"><text id="kity_text_245" text-rendering="inherit" font-size="12" dy=".8em" y="1051.5000294549873" x="145.49997574687052">有些场景需要套用模板</text></g></g><g id="minder_node34"><g id="node_expander32" display="none" style="cursor: pointer;"><path id="kity_path_514" fill="white" stroke="gray" d="M409.4999690776527,1109.500028722392A6,6,0,1,1,397.4999690776527,1109.500028722392A6,6,0,1,1,409.4999690776527,1109.500028722392"></path><path id="kity_path_515" fill="none" stroke="gray"></path></g><path id="node_outline33" fill="none" stroke="none" d="M322.4999731827871,1098.500028722392h70a5,5,0,0,1,5,5v12a5,5,0,0,1,-5,5h-70a5,5,0,0,1,-5,-5v-12a5,5,0,0,1,5,-5z"></path><g id="node_text33" fill="black"><text id="kity_text_249" text-rendering="inherit" font-size="12" dy=".8em" y="1103.500028722392" x="327.4999731827871">最优子结构</text></g></g><g id="minder_node35"><g id="node_expander33" display="none" style="cursor: pointer;"><path id="kity_path_517" fill="white" stroke="gray" d="M409.4999715702104,1161.5000279897968A6,6,0,1,1,397.4999715702104,1161.5000279897968A6,6,0,1,1,409.4999715702104,1161.5000279897968"></path><path id="kity_path_518" fill="none" stroke="gray"></path></g><path id="node_outline34" fill="none" stroke="none" d="M309.49997336593583,1150.5000279897968h83a5,5,0,0,1,5,5v12a5,5,0,0,1,-5,5h-83a5,5,0,0,1,-5,-5v-12a5,5,0,0,1,5,-5z"></path><g id="node_text34" fill="black"><text id="kity_text_251" text-rendering="inherit" font-size="12" dy=".8em" y="1155.5000279897968" x="314.49997336593583">状态转移方程</text></g></g><g id="minder_node36"><g id="node_expander36" style="cursor: pointer;"><path id="kity_path_526" fill="white" stroke="gray" d="M437.49997160922436,1254.5000266795782A6,6,0,1,1,425.49997160922436,1254.5000266795782A6,6,0,1,1,437.49997160922436,1254.5000266795782"></path><path id="kity_path_527" fill="none" stroke="gray" d="M426.99997160922436,1254.5000266795782L435.99997160922436,1254.5000266795782"></path></g><path id="node_outline37" fill="rgb(238, 243, 246)" stroke="rgb(115, 161, 191)" d="M441.4999713372104,1241.5000266795782h77a3,3,0,0,1,3,3v20a3,3,0,0,1,-3,3h-77a3,3,0,0,1,-3,-3v-20a3,3,0,0,1,3,-3z" stroke-width="1"></path><g id="node_text37" fill="black"><text id="kity_text_257" text-rendering="inherit" font-size="14" dy=".8em" y="1247.5000266795782" x="458.4999713372104">位运算</text></g></g><g id="minder_node37"><g id="node_expander35" display="none" style="cursor: pointer;"><path id="kity_path_523" fill="white" stroke="gray" d="M395.49996829954114,1243.5000268345502A6,6,0,1,1,383.49996829954114,1243.5000268345502A6,6,0,1,1,395.49996829954114,1243.5000268345502"></path><path id="kity_path_524" fill="none" stroke="gray"></path></g><path id="node_outline36" fill="none" stroke="none" d="M199.4999749156567,1232.5000268345502h179a5,5,0,0,1,5,5v12a5,5,0,0,1,-5,5h-179a5,5,0,0,1,-5,-5v-12a5,5,0,0,1,5,-5z"></path><g id="node_text36" fill="black"><text id="kity_text_255" text-rendering="inherit" font-size="12" dy=".8em" y="1237.5000268345502" x="204.4999749156567">需要记忆一些常见的位运算公式</text></g></g><g id="minder_node38"><g id="node_expander40" style="cursor: pointer;"><path id="kity_path_538" fill="white" stroke="gray" d="M423.49997180646153,1367.5000250875923A6,6,0,1,1,411.49997180646153,1367.5000250875923A6,6,0,1,1,423.49997180646153,1367.5000250875923"></path><path id="kity_path_539" fill="none" stroke="gray" d="M412.99997180646153,1367.5000250875923L421.99997180646153,1367.5000250875923"></path></g><path id="node_outline41" fill="rgb(238, 243, 246)" stroke="rgb(115, 161, 191)" d="M427.4999715344476,1354.5000250875923h105a3,3,0,0,1,3,3v20a3,3,0,0,1,-3,3h-105a3,3,0,0,1,-3,-3v-20a3,3,0,0,1,3,-3z" stroke-width="1"></path><g id="node_text41" fill="black"><text id="kity_text_265" text-rendering="inherit" font-size="14" dy=".8em" y="1360.5000250875923" x="444.4999715344476">布隆过滤器</text></g></g><g id="minder_node39"><g id="node_expander37" display="none" style="cursor: pointer;"><path id="kity_path_529" fill="white" stroke="gray" d="M396.4999776054515,1315.5000258201876A6,6,0,1,1,384.4999776054515,1315.5000258201876A6,6,0,1,1,396.4999776054515,1315.5000258201876"></path><path id="kity_path_530" fill="none" stroke="gray"></path></g><path id="node_outline38" fill="none" stroke="none" d="M246.49997425350324,1304.5000258201876h133a5,5,0,0,1,5,5v12a5,5,0,0,1,-5,5h-133a5,5,0,0,1,-5,-5v-12a5,5,0,0,1,5,-5z"></path><g id="node_text38" fill="black"><text id="kity_text_259" text-rendering="inherit" font-size="12" dy=".8em" y="1309.5000258201876" x="251.49997425350324">判断不存在 100% 准确</text></g></g><g id="minder_node40"><g id="node_expander38" display="none" style="cursor: pointer;"><path id="kity_path_532" fill="white" stroke="gray" d="M396.4999701277781,1367.5000250875923A6,6,0,1,1,384.4999701277781,1367.5000250875923A6,6,0,1,1,396.4999701277781,1367.5000250875923"></path><path id="kity_path_533" fill="none" stroke="gray"></path></g><path id="node_outline39" fill="none" stroke="none" d="M285.4999737040568,1356.5000250875923h94a5,5,0,0,1,5,5v12a5,5,0,0,1,-5,5h-94a5,5,0,0,1,-5,-5v-12a5,5,0,0,1,5,-5z"></path><g id="node_text39" fill="black"><text id="kity_text_261" text-rendering="inherit" font-size="12" dy=".8em" y="1361.5000250875923" x="290.4999737040568">判断存在有误差</text></g></g><g id="minder_node41"><g id="node_expander39" display="none" style="cursor: pointer;"><path id="kity_path_535" fill="white" stroke="gray" d="M396.4999666598717,1419.500024354997A6,6,0,1,1,384.4999666598717,1419.500024354997A6,6,0,1,1,396.4999666598717,1419.500024354997"></path><path id="kity_path_536" fill="none" stroke="gray"></path></g><path id="node_outline40" fill="none" stroke="none" d="M125.49997595819627,1408.500024354997h254a5,5,0,0,1,5,5v12a5,5,0,0,1,-5,5h-254a5,5,0,0,1,-5,-5v-12a5,5,0,0,1,5,-5z"></path><g id="node_text40" fill="black"><text id="kity_text_263" text-rendering="inherit" font-size="12" dy=".8em" y="1413.500024354997" x="130.49997595819627">利用 Hash 函数将待判断 Key 对应到多个位上 </text></g></g><g id="minder_node42"><g id="node_expander43" style="cursor: pointer;"><path id="kity_path_547" fill="white" stroke="gray" d="M457.49997132745693,1519.5000229461598A6,6,0,1,1,445.49997132745693,1519.5000229461598A6,6,0,1,1,457.49997132745693,1519.5000229461598"></path><path id="kity_path_548" fill="none" stroke="gray" d="M446.99997132745693,1519.5000229461598L455.99997132745693,1519.5000229461598"></path></g><path id="node_outline44" fill="rgb(238, 243, 246)" stroke="rgb(115, 161, 191)" d="M461.499971055443,1506.5000229461598h61a3,3,0,0,1,3,3v20a3,3,0,0,1,-3,3h-61a3,3,0,0,1,-3,-3v-20a3,3,0,0,1,3,-3z" stroke-width="1"></path><g id="node_text44" fill="black"><text id="kity_text_271" text-rendering="inherit" font-size="14" dy=".8em" y="1512.5000229461598" x="478.499971055443">LRU</text></g></g><g id="minder_node43"><g id="node_expander41" display="none" style="cursor: pointer;"><path id="kity_path_541" fill="white" stroke="gray" d="M430.49997430877283,1493.5000233124574A6,6,0,1,1,418.49997430877283,1493.5000233124574A6,6,0,1,1,430.49997430877283,1493.5000233124574"></path><path id="kity_path_542" fill="none" stroke="gray"></path></g><path id="node_outline42" fill="none" stroke="none" d="M278.49997380267536,1482.5000233124574h135a5,5,0,0,1,5,5v12a5,5,0,0,1,-5,5h-135a5,5,0,0,1,-5,-5v-12a5,5,0,0,1,5,-5z"></path><g id="node_text42" fill="black"><text id="kity_text_267" text-rendering="inherit" font-size="12" dy=".8em" y="1487.5000233124574" x="283.49997380267536">HashTable + 双向链表</text></g></g><g id="minder_node44"><g id="node_expander42" display="none" style="cursor: pointer;"><path id="kity_path_544" fill="white" stroke="gray" d="M430.49997625947015,1545.5000225798622A6,6,0,1,1,418.49997625947015,1545.5000225798622A6,6,0,1,1,430.49997625947015,1545.5000225798622"></path><path id="kity_path_545" fill="none" stroke="gray"></path></g><path id="node_outline43" fill="none" stroke="none" d="M240.49997433803344,1534.5000225798622h173a5,5,0,0,1,5,5v12a5,5,0,0,1,-5,5h-173a5,5,0,0,1,-5,-5v-12a5,5,0,0,1,5,-5z"></path><g id="node_text43" fill="black"><text id="kity_text_269" text-rendering="inherit" font-size="12" dy=".8em" y="1539.5000225798622" x="245.49997433803344">get 和 set 都是 O(1) 的复杂度</text></g></g><g id="minder_node45"><g id="node_expander49" style="cursor: pointer;"><path id="kity_path_565" fill="white" stroke="gray" d="M1007.4999645542014,201.50004151463315A6,6,0,1,1,995.4999645542014,201.50004151463315A6,6,0,1,1,1007.4999645542014,201.50004151463315"></path><path id="kity_path_566" fill="none" stroke="gray" d="M996.9999645542014,201.50004151463315L1005.9999645542014,201.50004151463315"></path></g><path id="node_outline50" fill="rgb(238, 243, 246)" stroke="rgb(115, 161, 191)" d="M928.4999644761735,188.50004151463315h63a3,3,0,0,1,3,3v20a3,3,0,0,1,-3,3h-63a3,3,0,0,1,-3,-3v-20a3,3,0,0,1,3,-3z" stroke-width="1"></path><g id="node_text50" fill="black"><text id="kity_text_283" text-rendering="inherit" font-size="14" dy=".8em" y="194.50004151463315" x="945.4999644761735">工具</text></g></g><g id="minder_node46"><g id="node_expander44" display="none" style="cursor: pointer;"><path id="kity_path_550" fill="white" stroke="gray" d="M1034.4999633068387,97.50004297982389A6,6,0,1,1,1022.4999633068387,97.50004297982389A6,6,0,1,1,1034.4999633068387,97.50004297982389"></path><path id="kity_path_551" fill="none" stroke="gray"></path></g><path id="node_outline45" fill="none" stroke="none" d="M1039.4999630814248,86.50004297982389h104a5,5,0,0,1,5,5v12a5,5,0,0,1,-5,5h-104a5,5,0,0,1,-5,-5v-12a5,5,0,0,1,5,-5z"></path><g id="node_text45" fill="black"><text id="kity_text_273" text-rendering="inherit" font-size="12" dy=".8em" y="91.50004297982389" x="1044.4999630814248">Google 搜索引擎</text></g></g><g id="minder_node47"><g id="node_expander45" display="none" style="cursor: pointer;"><path id="kity_path_553" fill="white" stroke="gray" d="M1034.4999633068387,149.5000422472284A6,6,0,1,1,1022.4999633068387,149.5000422472284A6,6,0,1,1,1034.4999633068387,149.5000422472284"></path><path id="kity_path_554" fill="none" stroke="gray"></path></g><path id="node_outline46" fill="none" stroke="none" d="M1039.4999630814248,138.5000422472284h161a5,5,0,0,1,5,5v12a5,5,0,0,1,-5,5h-161a5,5,0,0,1,-5,-5v-12a5,5,0,0,1,5,-5z"></path><g id="node_text46" fill="black"><text id="kity_text_275" text-rendering="inherit" font-size="12" dy=".8em" y="143.5000422472284" x="1044.4999630814248">iTerm2 + zsh 最强终端体验</text></g></g><g id="minder_node48"><g id="node_expander46" display="none" style="cursor: pointer;"><path id="kity_path_556" fill="white" stroke="gray" d="M1034.4999633068387,201.50004151463315A6,6,0,1,1,1022.4999633068387,201.50004151463315A6,6,0,1,1,1034.4999633068387,201.50004151463315"></path><path id="kity_path_557" fill="none" stroke="gray"></path></g><path id="node_outline47" fill="none" stroke="none" d="M1039.4999630814248,190.50004151463315h89a5,5,0,0,1,5,5v12a5,5,0,0,1,-5,5h-89a5,5,0,0,1,-5,-5v-12a5,5,0,0,1,5,-5z"></path><g id="node_text47" fill="black"><text id="kity_text_277" text-rendering="inherit" font-size="12" dy=".8em" y="195.50004151463315" x="1044.4999630814248">heyfocus.com</text></g></g><g id="minder_node49"><g id="node_expander47" display="none" style="cursor: pointer;"><path id="kity_path_559" fill="white" stroke="gray" d="M1034.4999633068387,253.5000407820379A6,6,0,1,1,1022.4999633068387,253.5000407820379A6,6,0,1,1,1034.4999633068387,253.5000407820379"></path><path id="kity_path_560" fill="none" stroke="gray"></path></g><path id="node_outline48" fill="none" stroke="none" d="M1039.4999630814248,242.5000407820379h148a5,5,0,0,1,5,5v12a5,5,0,0,1,-5,5h-148a5,5,0,0,1,-5,-5v-12a5,5,0,0,1,5,-5z"></path><g id="node_text48" fill="black"><text id="kity_text_279" text-rendering="inherit" font-size="12" dy=".8em" y="247.5000407820379" x="1044.4999630814248">IDEA + LeetCode Plugin</text></g></g><g id="minder_node50"><g id="node_expander48" display="none" style="cursor: pointer;"><path id="kity_path_562" fill="white" stroke="gray" d="M1034.4999633068387,305.50004004944265A6,6,0,1,1,1022.4999633068387,305.50004004944265A6,6,0,1,1,1034.4999633068387,305.50004004944265"></path><path id="kity_path_563" fill="none" stroke="gray"></path></g><path id="node_outline49" fill="none" stroke="none" d="M1039.4999630814248,294.50004004944265h64a5,5,0,0,1,5,5v12a5,5,0,0,1,-5,5h-64a5,5,0,0,1,-5,-5v-12a5,5,0,0,1,5,-5z"></path><g id="node_text49" fill="black"><text id="kity_text_281" text-rendering="inherit" font-size="12" dy=".8em" y="299.50004004944265" x="1044.4999630814248">LeetCode</text></g></g><g id="minder_node51"><g id="node_expander59" style="cursor: pointer;"><path id="kity_path_595" fill="white" stroke="gray" d="M1029.4999618600714,578.5000362033172A6,6,0,1,1,1017.4999618600715,578.5000362033172A6,6,0,1,1,1029.4999618600714,578.5000362033172"></path><path id="kity_path_596" fill="none" stroke="gray" d="M1018.9999618600715,578.5000362033172L1027.9999618600714,578.5000362033172"></path></g><path id="node_outline60" fill="rgb(238, 243, 246)" stroke="rgb(115, 161, 191)" d="M936.4999643634666,565.5000362033172h77a3,3,0,0,1,3,3v20a3,3,0,0,1,-3,3h-77a3,3,0,0,1,-3,-3v-20a3,3,0,0,1,3,-3z" stroke-width="1"></path><g id="node_text60" fill="black"><text id="kity_text_303" text-rendering="inherit" font-size="14" dy=".8em" y="571.5000362033172" x="953.4999643634666">复杂度</text></g></g><g id="minder_node52"><g id="node_expander55" style="cursor: pointer;"><path id="kity_path_583" fill="white" stroke="gray" d="M1166.4999639397315,482.5000375558009A6,6,0,1,1,1154.4999639397315,482.5000375558009A6,6,0,1,1,1166.4999639397315,482.5000375558009"></path><path id="kity_path_584" fill="none" stroke="gray" d="M1155.9999639397315,482.5000375558009L1164.9999639397315,482.5000375558009"></path></g><path id="node_outline56" fill="none" stroke="none" d="M1078.4999625319783,471.5000375558009h71a5,5,0,0,1,5,5v12a5,5,0,0,1,-5,5h-71a5,5,0,0,1,-5,-5v-12a5,5,0,0,1,5,-5z"></path><g id="node_text56" fill="black"><text id="kity_text_295" text-rendering="inherit" font-size="12" dy=".8em" y="476.5000375558009" x="1083.4999625319783">时间复杂度</text></g></g><g id="minder_node53"><g id="node_expander50" display="none" style="cursor: pointer;"><path id="kity_path_568" fill="white" stroke="gray" d="M1511.4999617885453,301.5000401057961A6,6,0,1,1,1499.4999617885453,301.5000401057961A6,6,0,1,1,1511.4999617885453,301.5000401057961"></path><path id="kity_path_569" fill="none" stroke="gray"></path></g><path id="node_outline51" fill="none" stroke="none" d="M1228.4999604187226,290.5000401057961h266a5,5,0,0,1,5,5v12a5,5,0,0,1,-5,5h-266a5,5,0,0,1,-5,-5v-12a5,5,0,0,1,5,-5z"></path><g id="node_text51" fill="black"><text id="kity_text_285" text-rendering="inherit" font-size="12" dy=".8em" y="295.5000401057961" x="1233.4999604187226">O(1) 常数复杂度，最佳，比如 Hash 表、缓存等</text></g></g><g id="minder_node54"><g id="node_expander51" display="none" style="cursor: pointer;"><path id="kity_path_571" fill="white" stroke="gray" d="M1572.499943264506,348.50003944364266A6,6,0,1,1,1560.499943264506,348.50003944364266A6,6,0,1,1,1572.499943264506,348.50003944364266"></path><path id="kity_path_572" fill="none" stroke="gray"></path></g><path id="node_outline52" fill="none" stroke="none" d="M1242.4999602214855,337.50003944364266h313a5,5,0,0,1,5,5v12a5,5,0,0,1,-5,5h-313a5,5,0,0,1,-5,-5v-12a5,5,0,0,1,5,-5z"></path><g id="node_text52" fill="black"><text id="kity_text_287" text-rendering="inherit" font-size="12" dy=".8em" y="342.50003944364266" x="1247.4999602214855">O(log n) 仅次于常数复杂度，如二分查找、二叉搜索树等</text></g></g><g id="minder_node55"><g id="node_expander52" display="none" style="cursor: pointer;"><path id="kity_path_574" fill="white" stroke="gray" d="M1462.4999554346905,396.50003876740084A6,6,0,1,1,1450.4999554346905,396.50003876740084A6,6,0,1,1,1462.4999554346905,396.50003876740084"></path><path id="kity_path_575" fill="none" stroke="gray"></path></g><path id="node_outline53" fill="none" stroke="none" d="M1238.499960277839,385.50003876740084h207a5,5,0,0,1,5,5v12a5,5,0,0,1,-5,5h-207a5,5,0,0,1,-5,-5v-12a5,5,0,0,1,5,-5z"></path><g id="node_text53" fill="black"><text id="kity_text_289" text-rendering="inherit" font-size="12" dy=".8em" y="390.50003876740084" x="1243.499960277839">O(n) 线性复杂度，如大多数遍历操作</text></g></g><g id="minder_node56"><g id="node_expander53" display="none" style="cursor: pointer;"><path id="kity_path_577" fill="white" stroke="gray" d="M1402.499958013946,449.5000380207171A6,6,0,1,1,1390.499958013946,449.5000380207171A6,6,0,1,1,1402.499958013946,449.5000380207171"></path><path id="kity_path_578" fill="none" stroke="gray"></path></g><path id="node_outline54" fill="none" stroke="none" d="M1258.4999599960715,438.5000380207171h127a5,5,0,0,1,5,5v12a5,5,0,0,1,-5,5h-127a5,5,0,0,1,-5,-5v-12a5,5,0,0,1,5,-5z"></path><g id="node_text54" fill="black"><text id="kity_text_291" text-rendering="inherit" font-size="12" dy=".8em" y="443.5000380207171" x="1263.4999599960715">O(n^2) 双重 for 循环</text></g></g><g id="minder_node57"><g id="node_expander54" display="none" style="cursor: pointer;"><path id="kity_path_580" fill="white" stroke="gray" d="M1440.4999514097517,499.5000373162986A6,6,0,1,1,1428.4999514097517,499.5000373162986A6,6,0,1,1,1440.4999514097517,499.5000373162986"></path><path id="kity_path_581" fill="none" stroke="gray"></path></g><path id="node_outline55" fill="none" stroke="none" d="M1272.4999597988344,488.5000373162986h151a5,5,0,0,1,5,5v12a5,5,0,0,1,-5,5h-151a5,5,0,0,1,-5,-5v-12a5,5,0,0,1,5,-5z"></path><g id="node_text55" fill="black"><text id="kity_text_293" text-rendering="inherit" font-size="12" dy=".8em" y="493.5000373162986" x="1277.4999597988344">O(2^n) 递归的时间复杂度</text></g></g><g id="minder_node58"><g id="node_expander58" style="cursor: pointer;"><path id="kity_path_592" fill="white" stroke="gray" d="M1170.499963883378,599.5000359074614A6,6,0,1,1,1158.499963883378,599.5000359074614A6,6,0,1,1,1170.499963883378,599.5000359074614"></path><path id="kity_path_593" fill="none" stroke="gray" d="M1159.999963883378,599.5000359074614L1168.999963883378,599.5000359074614"></path></g><path id="node_outline59" fill="none" stroke="none" d="M1082.499962475625,588.5000359074614h71a5,5,0,0,1,5,5v12a5,5,0,0,1,-5,5h-71a5,5,0,0,1,-5,-5v-12a5,5,0,0,1,5,-5z"></path><g id="node_text59" fill="black"><text id="kity_text_301" text-rendering="inherit" font-size="12" dy=".8em" y="593.5000359074614" x="1087.499962475625">空间复杂度</text></g></g><g id="minder_node59"><g id="node_expander56" display="none" style="cursor: pointer;"><path id="kity_path_586" fill="white" stroke="gray" d="M1330.4999613041225,558.5000364850847A6,6,0,1,1,1318.4999613041225,558.5000364850847A6,6,0,1,1,1330.4999613041225,558.5000364850847"></path><path id="kity_path_587" fill="none" stroke="gray"></path></g><path id="node_outline57" fill="none" stroke="none" d="M1227.4999604328111,547.5000364850847h86a5,5,0,0,1,5,5v12a5,5,0,0,1,-5,5h-86a5,5,0,0,1,-5,-5v-12a5,5,0,0,1,5,-5z"></path><g id="node_text57" fill="black"><text id="kity_text_297" text-rendering="inherit" font-size="12" dy=".8em" y="552.5000364850847" x="1232.4999604328111">O(1) 原地操作</text></g></g><g id="minder_node60"><g id="node_expander57" display="none" style="cursor: pointer;"><path id="kity_path_589" fill="white" stroke="gray" d="M1365.4999611361457,616.5000356679591A6,6,0,1,1,1353.4999611361457,616.5000356679591A6,6,0,1,1,1365.4999611361457,616.5000356679591"></path><path id="kity_path_590" fill="none" stroke="gray"></path></g><path id="node_outline58" fill="none" stroke="none" d="M1213.4999606300482,605.5000356679591h135a5,5,0,0,1,5,5v12a5,5,0,0,1,-5,5h-135a5,5,0,0,1,-5,-5v-12a5,5,0,0,1,5,-5z"></path><g id="node_text58" fill="black"><text id="kity_text_299" text-rendering="inherit" font-size="12" dy=".8em" y="610.5000356679591" x="1218.4999606300482">O(n) 开辟线性辅助空间 </text></g></g><g id="minder_node61"><g id="node_expander62" style="cursor: pointer;"><path id="kity_path_604" fill="white" stroke="gray" d="M1019.499964385141,688.5000346535963A6,6,0,1,1,1007.499964385141,688.5000346535963A6,6,0,1,1,1019.499964385141,688.5000346535963"></path><path id="kity_path_605" fill="none" stroke="gray" d="M1008.999964385141,688.5000346535963L1017.999964385141,688.5000346535963"></path></g><path id="node_outline63" fill="rgb(238, 243, 246)" stroke="rgb(115, 161, 191)" d="M940.4999643071131,675.5000346535963h63a3,3,0,0,1,3,3v20a3,3,0,0,1,-3,3h-63a3,3,0,0,1,-3,-3v-20a3,3,0,0,1,3,-3z" stroke-width="1"></path><g id="node_text63" fill="black"><text id="kity_text_309" text-rendering="inherit" font-size="14" dy=".8em" y="681.5000346535963" x="957.4999643071131">数组</text></g></g><g id="minder_node62"><g id="node_expander60" display="none" style="cursor: pointer;"><path id="kity_path_598" fill="white" stroke="gray" d="M1046.4999631377784,662.5000350198941A6,6,0,1,1,1034.4999631377784,662.5000350198941A6,6,0,1,1,1046.4999631377784,662.5000350198941"></path><path id="kity_path_599" fill="none" stroke="gray"></path></g><path id="node_outline61" fill="none" stroke="none" d="M1051.4999629123645,651.5000350198941h58a5,5,0,0,1,5,5v12a5,5,0,0,1,-5,5h-58a5,5,0,0,1,-5,-5v-12a5,5,0,0,1,5,-5z"></path><g id="node_text61" fill="black"><text id="kity_text_305" text-rendering="inherit" font-size="12" dy=".8em" y="656.5000350198941" x="1056.4999629123645">连续空间</text></g></g><g id="minder_node63"><g id="node_expander61" display="none" style="cursor: pointer;"><path id="kity_path_601" fill="white" stroke="gray" d="M1046.4999631377784,714.5000342872987A6,6,0,1,1,1034.4999631377784,714.5000342872987A6,6,0,1,1,1046.4999631377784,714.5000342872987"></path><path id="kity_path_602" fill="none" stroke="gray"></path></g><path id="node_outline62" fill="none" stroke="none" d="M1051.4999629123645,703.5000342872987h148a5,5,0,0,1,5,5v12a5,5,0,0,1,-5,5h-148a5,5,0,0,1,-5,-5v-12a5,5,0,0,1,5,-5z"></path><g id="node_text62" fill="black"><text id="kity_text_307" text-rendering="inherit" font-size="12" dy=".8em" y="708.5000342872987" x="1056.4999629123645">查找快、插入/删除结点慢 </text></g></g><g id="minder_node64"><g id="node_expander65" style="cursor: pointer;"><path id="kity_path_613" fill="white" stroke="gray" d="M1019.499964385141,795.5000331461406A6,6,0,1,1,1007.499964385141,795.5000331461406A6,6,0,1,1,1019.499964385141,795.5000331461406"></path><path id="kity_path_614" fill="none" stroke="gray" d="M1008.999964385141,795.5000331461406L1017.999964385141,795.5000331461406"></path></g><path id="node_outline66" fill="rgb(238, 243, 246)" stroke="rgb(115, 161, 191)" d="M940.4999643071131,782.5000331461406h63a3,3,0,0,1,3,3v20a3,3,0,0,1,-3,3h-63a3,3,0,0,1,-3,-3v-20a3,3,0,0,1,3,-3z" stroke-width="1"></path><g id="node_text66" fill="black"><text id="kity_text_315" text-rendering="inherit" font-size="14" dy=".8em" y="788.5000331461406" x="957.4999643071131">链表</text></g></g><g id="minder_node65"><g id="node_expander63" display="none" style="cursor: pointer;"><path id="kity_path_607" fill="white" stroke="gray" d="M1046.4999631377784,769.5000335124383A6,6,0,1,1,1034.4999631377784,769.5000335124383A6,6,0,1,1,1046.4999631377784,769.5000335124383"></path><path id="kity_path_608" fill="none" stroke="gray"></path></g><path id="node_outline64" fill="none" stroke="none" d="M1051.4999629123645,758.5000335124383h58a5,5,0,0,1,5,5v12a5,5,0,0,1,-5,5h-58a5,5,0,0,1,-5,-5v-12a5,5,0,0,1,5,-5z"></path><g id="node_text64" fill="black"><text id="kity_text_311" text-rendering="inherit" font-size="12" dy=".8em" y="763.5000335124383" x="1056.4999629123645">离散空间</text></g></g><g id="minder_node66"><g id="node_expander64" display="none" style="cursor: pointer;"><path id="kity_path_610" fill="white" stroke="gray" d="M1046.4999631377784,821.500032779843A6,6,0,1,1,1034.4999631377784,821.500032779843A6,6,0,1,1,1046.4999631377784,821.500032779843"></path><path id="kity_path_611" fill="none" stroke="gray"></path></g><path id="node_outline65" fill="none" stroke="none" d="M1051.4999629123645,810.500032779843h148a5,5,0,0,1,5,5v12a5,5,0,0,1,-5,5h-148a5,5,0,0,1,-5,-5v-12a5,5,0,0,1,5,-5z"></path><g id="node_text65" fill="black"><text id="kity_text_313" text-rendering="inherit" font-size="12" dy=".8em" y="815.500032779843" x="1056.4999629123645">查找慢，插入/删除结点快</text></g></g><g id="minder_node67"><g id="node_expander67" style="cursor: pointer;"><path id="kity_path_619" fill="white" stroke="gray" d="M1014.499963371862,894.5000317513919A6,6,0,1,1,1002.499963371862,894.5000317513919A6,6,0,1,1,1014.499963371862,894.5000317513919"></path><path id="kity_path_620" fill="none" stroke="gray" d="M1003.999963371862,894.5000317513919L1012.999963371862,894.5000317513919"></path></g><path id="node_outline68" fill="rgb(238, 243, 246)" stroke="rgb(115, 161, 191)" d="M949.4999641803178,881.5000317513919h49a3,3,0,0,1,3,3v20a3,3,0,0,1,-3,3h-49a3,3,0,0,1,-3,-3v-20a3,3,0,0,1,3,-3z" stroke-width="1"></path><g id="node_text68" fill="black"><text id="kity_text_319" text-rendering="inherit" font-size="14" dy=".8em" y="887.5000317513919" x="966.4999641803178">栈</text></g></g><g id="minder_node68"><g id="node_expander66" display="none" style="cursor: pointer;"><path id="kity_path_616" fill="white" stroke="gray" d="M1041.4999632082202,894.5000317513919A6,6,0,1,1,1029.4999632082202,894.5000317513919A6,6,0,1,1,1041.4999632082202,894.5000317513919"></path><path id="kity_path_617" fill="none" stroke="gray"></path></g><path id="node_outline67" fill="none" stroke="none" d="M1046.4999629828062,883.5000317513919h58a5,5,0,0,1,5,5v12a5,5,0,0,1,-5,5h-58a5,5,0,0,1,-5,-5v-12a5,5,0,0,1,5,-5z"></path><g id="node_text67" fill="black"><text id="kity_text_317" text-rendering="inherit" font-size="12" dy=".8em" y="888.5000317513919" x="1051.4999629828062">先进后出</text></g></g><g id="minder_node69"><g id="node_expander69" style="cursor: pointer;"><path id="kity_path_625" fill="white" stroke="gray" d="M1025.4999622415412,977.5000305820571A6,6,0,1,1,1013.4999622415412,977.5000305820571A6,6,0,1,1,1025.4999622415412,977.5000305820571"></path><path id="kity_path_626" fill="none" stroke="gray" d="M1014.9999622415412,977.5000305820571L1023.9999622415412,977.5000305820571"></path></g><path id="node_outline70" fill="rgb(238, 243, 246)" stroke="rgb(115, 161, 191)" d="M947.4999642084945,964.5000305820571h62a3,3,0,0,1,3,3v20a3,3,0,0,1,-3,3h-62a3,3,0,0,1,-3,-3v-20a3,3,0,0,1,3,-3z" stroke-width="1"></path><g id="node_text70" fill="black"><text id="kity_text_323" text-rendering="inherit" font-size="14" dy=".8em" y="970.5000305820571" x="964.4999642084945">队列</text></g></g><g id="minder_node70"><g id="node_expander68" display="none" style="cursor: pointer;"><path id="kity_path_622" fill="white" stroke="gray" d="M1052.4999630532482,977.5000305820571A6,6,0,1,1,1040.4999630532482,977.5000305820571A6,6,0,1,1,1052.4999630532482,977.5000305820571"></path><path id="kity_path_623" fill="none" stroke="gray"></path></g><path id="node_outline69" fill="none" stroke="none" d="M1057.4999628278342,966.5000305820571h58a5,5,0,0,1,5,5v12a5,5,0,0,1,-5,5h-58a5,5,0,0,1,-5,-5v-12a5,5,0,0,1,5,-5z"></path><g id="node_text69" fill="black"><text id="kity_text_321" text-rendering="inherit" font-size="12" dy=".8em" y="971.5000305820571" x="1062.4999628278342">先进先出</text></g></g><g id="minder_node71"><g id="node_expander71" style="cursor: pointer;"><path id="kity_path_631" fill="white" stroke="gray" d="M1022.4999643428758,1073.5000292295733A6,6,0,1,1,1010.4999643428758,1073.5000292295733A6,6,0,1,1,1022.4999643428758,1073.5000292295733"></path><path id="kity_path_632" fill="none" stroke="gray" d="M1011.9999643428758,1073.5000292295733L1020.9999643428758,1073.5000292295733"></path></g><path id="node_outline72" fill="rgb(238, 243, 246)" stroke="rgb(115, 161, 191)" d="M943.499964264848,1060.5000292295733h63a3,3,0,0,1,3,3v20a3,3,0,0,1,-3,3h-63a3,3,0,0,1,-3,-3v-20a3,3,0,0,1,3,-3z" stroke-width="1"></path><g id="node_text72" fill="black"><text id="kity_text_327" text-rendering="inherit" font-size="14" dy=".8em" y="1066.5000292295733" x="960.499964264848">映射</text></g></g><g id="minder_node72"><g id="node_expander70" display="none" style="cursor: pointer;"><path id="kity_path_628" fill="white" stroke="gray" d="M1049.4999630955133,1073.5000292295733A6,6,0,1,1,1037.4999630955133,1073.5000292295733A6,6,0,1,1,1049.4999630955133,1073.5000292295733"></path><path id="kity_path_629" fill="none" stroke="gray"></path></g><path id="node_outline71" fill="none" stroke="none" d="M1054.4999628700994,1062.5000292295733h143a5,5,0,0,1,5,5v12a5,5,0,0,1,-5,5h-143a5,5,0,0,1,-5,-5v-12a5,5,0,0,1,5,-5z"></path><g id="node_text71" fill="black"><text id="kity_text_325" text-rendering="inherit" font-size="12" dy=".8em" y="1067.5000292295733" x="1059.4999628700994">K/V 键值对，Key 不重复</text></g></g><g id="minder_node73"><g id="node_expander73" style="cursor: pointer;"><path id="kity_path_637" fill="white" stroke="gray" d="M1023.4999643287874,1175.5000277925596A6,6,0,1,1,1011.4999643287874,1175.5000277925596A6,6,0,1,1,1023.4999643287874,1175.5000277925596"></path><path id="kity_path_638" fill="none" stroke="gray" d="M1012.9999643287874,1175.5000277925596L1021.9999643287874,1175.5000277925596"></path></g><path id="node_outline74" fill="rgb(238, 243, 246)" stroke="rgb(115, 161, 191)" d="M944.4999642507596,1162.5000277925596h63a3,3,0,0,1,3,3v20a3,3,0,0,1,-3,3h-63a3,3,0,0,1,-3,-3v-20a3,3,0,0,1,3,-3z" stroke-width="1"></path><g id="node_text74" fill="black"><text id="kity_text_331" text-rendering="inherit" font-size="14" dy=".8em" y="1168.5000277925596" x="961.4999642507596">集合</text></g></g><g id="minder_node74"><g id="node_expander72" display="none" style="cursor: pointer;"><path id="kity_path_634" fill="white" stroke="gray" d="M1050.4999630814248,1175.5000277925596A6,6,0,1,1,1038.4999630814248,1175.5000277925596A6,6,0,1,1,1050.4999630814248,1175.5000277925596"></path><path id="kity_path_635" fill="none" stroke="gray"></path></g><path id="node_outline73" fill="none" stroke="none" d="M1055.4999628560108,1164.5000277925596h71a5,5,0,0,1,5,5v12a5,5,0,0,1,-5,5h-71a5,5,0,0,1,-5,-5v-12a5,5,0,0,1,5,-5z"></path><g id="node_text73" fill="black"><text id="kity_text_329" text-rendering="inherit" font-size="12" dy=".8em" y="1169.5000277925596" x="1060.4999628560108">Key 不重复</text></g></g><g id="minder_node75"><g id="node_expander78" style="cursor: pointer;"><path id="kity_path_652" fill="white" stroke="gray" d="M1028.49996187416,1304.5000259751596A6,6,0,1,1,1016.4999618741599,1304.5000259751596A6,6,0,1,1,1028.49996187416,1304.5000259751596"></path><path id="kity_path_653" fill="none" stroke="gray" d="M1017.9999618741599,1304.5000259751596L1026.99996187416,1304.5000259751596"></path></g><path id="node_outline79" fill="rgb(238, 243, 246)" stroke="rgb(115, 161, 191)" d="M935.499964377555,1291.5000259751596h77a3,3,0,0,1,3,3v20a3,3,0,0,1,-3,3h-77a3,3,0,0,1,-3,-3v-20a3,3,0,0,1,3,-3z" stroke-width="1"></path><g id="node_text79" fill="black"><text id="kity_text_341" text-rendering="inherit" font-size="14" dy=".8em" y="1297.5000259751596" x="952.499964377555">并查集</text></g></g><g id="minder_node76"><g id="node_expander74" display="none" style="cursor: pointer;"><path id="kity_path_640" fill="white" stroke="gray" d="M1055.499963010983,1226.5000270740527A6,6,0,1,1,1043.499963010983,1226.5000270740527A6,6,0,1,1,1055.499963010983,1226.5000270740527"></path><path id="kity_path_641" fill="none" stroke="gray"></path></g><path id="node_outline75" fill="none" stroke="none" d="M1060.499962785569,1215.5000270740527h59a5,5,0,0,1,5,5v12a5,5,0,0,1,-5,5h-59a5,5,0,0,1,-5,-5v-12a5,5,0,0,1,5,-5z"></path><g id="node_text75" fill="black"><text id="kity_text_333" text-rendering="inherit" font-size="12" dy=".8em" y="1220.5000270740527" x="1065.499962785569">站队问题</text></g></g><g id="minder_node77"><g id="node_expander75" display="none" style="cursor: pointer;"><path id="kity_path_643" fill="white" stroke="gray" d="M1055.499963010983,1278.5000263414572A6,6,0,1,1,1043.499963010983,1278.5000263414572A6,6,0,1,1,1055.499963010983,1278.5000263414572"></path><path id="kity_path_644" fill="none" stroke="gray"></path></g><path id="node_outline76" fill="none" stroke="none" d="M1060.499962785569,1267.5000263414572h47a5,5,0,0,1,5,5v12a5,5,0,0,1,-5,5h-47a5,5,0,0,1,-5,-5v-12a5,5,0,0,1,5,-5z"></path><g id="node_text76" fill="black"><text id="kity_text_335" text-rendering="inherit" font-size="12" dy=".8em" y="1272.5000263414572" x="1065.499962785569">初始化</text></g></g><g id="minder_node78"><g id="node_expander76" display="none" style="cursor: pointer;"><path id="kity_path_646" fill="white" stroke="gray" d="M1055.499963010983,1330.500025608862A6,6,0,1,1,1043.499963010983,1330.500025608862A6,6,0,1,1,1055.499963010983,1330.500025608862"></path><path id="kity_path_647" fill="none" stroke="gray"></path></g><path id="node_outline77" fill="none" stroke="none" d="M1060.499962785569,1319.500025608862h70a5,5,0,0,1,5,5v12a5,5,0,0,1,-5,5h-70a5,5,0,0,1,-5,-5v-12a5,5,0,0,1,5,-5z"></path><g id="node_text77" fill="black"><text id="kity_text_337" text-rendering="inherit" font-size="12" dy=".8em" y="1324.500025608862" x="1065.499962785569">查询、合并</text></g></g><g id="minder_node79"><g id="node_expander77" display="none" style="cursor: pointer;"><path id="kity_path_649" fill="white" stroke="gray" d="M1055.499963010983,1382.5000248762667A6,6,0,1,1,1043.499963010983,1382.5000248762667A6,6,0,1,1,1055.499963010983,1382.5000248762667"></path><path id="kity_path_650" fill="none" stroke="gray"></path></g><path id="node_outline78" fill="none" stroke="none" d="M1060.499962785569,1371.5000248762667h59a5,5,0,0,1,5,5v12a5,5,0,0,1,-5,5h-59a5,5,0,0,1,-5,-5v-12a5,5,0,0,1,5,-5z"></path><g id="node_text78" fill="black"><text id="kity_text_339" text-rendering="inherit" font-size="12" dy=".8em" y="1376.5000248762667" x="1065.499962785569">路径压缩</text></g></g></g></g></svg>