<svg id="kity_svg_6" xmlns="http://www.w3.org/2000/svg" xmlns:xlink="http://www.w3.org/1999/xlink" version="1.1" width="1856" height="1180" style="background: rgb(251, 251, 251); visibility: visible;" viewBox="0 0 1856 1180"><defs id="kity_defs_7"><linearGradient id="kity_linearGradient_17" x1="0" y1="0" x2="0" y2="1"><stop id="kity_stop_18" offset="0" stop-color="rgb(255, 255, 255)"></stop><stop id="kity_stop_19" offset="1" stop-color="rgb(204, 204, 204)"></stop></linearGradient><marker id="kity_marker_2" orient="auto" refX="6" refY="0" viewBox="-7 -7 14 14" markerWidth="7" markerHeight="7" markerUnits="userSpaceOnUse"><path id="kity_path_3" fill="rgb(115, 161, 191)" stroke="none" d="M6,0A6,6,0,1,1,-6,0A6,6,0,1,1,6,0"></path></marker></defs><g id="kity_g_8"><g id="minder1" text-rendering="optimize-speed"><g id="minder_connect_group1"><path id="kity_path_31" fill="none" stroke="rgb(115, 161, 191)" stroke-width="1" d="M837.5000002292062,601.4999808598648A174,271,0,0,1,1011.5000002292062,330.49998085986476"></path><path id="kity_path_33" fill="none" stroke="rgb(115, 161, 191)" stroke-width="1" d="M1138.5000002292063,330.49998085986476C1153.5000002292063,330.49998085986476,1153.5000002292063,214.49998085986476,1168.5000002292063,214.49998085986476L1246.5000002292063,214.49998085986476"></path><path id="kity_path_35" fill="none" stroke="rgb(115, 161, 191)" stroke-width="1" d="M1246.5000002292063,214.49998085986476C1261.5000002292063,214.49998085986476,1261.5000002292063,214.49998085986476,1276.5000002292063,214.49998085986476L1331.5000002292063,214.49998085986476"></path><path id="kity_path_37" fill="none" stroke="rgb(115, 161, 191)" stroke-width="1" d="M1331.5000002292063,214.49998085986476C1346.5000002292063,214.49998085986476,1346.5000002292063,162.49998085986476,1361.5000002292063,162.49998085986476L1507.5000002292063,162.49998085986476"></path><path id="kity_path_39" fill="none" stroke="rgb(115, 161, 191)" stroke-width="1" d="M1331.5000002292063,214.49998085986476C1346.5000002292063,214.49998085986476,1346.5000002292063,214.49998085986476,1361.5000002292063,214.49998085986476L1532.5000002292063,214.49998085986476"></path><path id="kity_path_41" fill="none" stroke="rgb(115, 161, 191)" stroke-width="1" d="M1331.5000002292063,214.49998085986476C1346.5000002292063,214.49998085986476,1346.5000002292063,266.49998085986476,1361.5000002292063,266.49998085986476L1595.5000002292063,266.49998085986476"></path><path id="kity_path_43" fill="none" stroke="rgb(115, 161, 191)" stroke-width="1" d="M1138.5000002292063,330.49998085986476C1153.5000002292063,330.49998085986476,1153.5000002292063,474.49998085986476,1168.5000002292063,474.49998085986476L1246.5000002292063,474.49998085986476"></path><path id="kity_path_45" fill="none" stroke="rgb(115, 161, 191)" stroke-width="1" d="M1246.5000002292063,474.49998085986476C1261.5000002292063,474.49998085986476,1261.5000002292063,370.49998085986476,1276.5000002292063,370.49998085986476L1343.5000002292063,370.49998085986476"></path><path id="kity_path_47" fill="none" stroke="rgb(115, 161, 191)" stroke-width="1" d="M1343.5000002292063,370.49998085986476C1358.5000002292063,370.49998085986476,1358.5000002292063,318.49998085986476,1373.5000002292063,318.49998085986476L1607.5000002292063,318.49998085986476"></path><path id="kity_path_49" fill="none" stroke="rgb(115, 161, 191)" stroke-width="1" d="M1343.5000002292063,370.49998085986476C1358.5000002292063,370.49998085986476,1358.5000002292063,370.49998085986476,1373.5000002292063,370.49998085986476L1659.5000002292063,370.49998085986476"></path><path id="kity_path_51" fill="none" stroke="rgb(115, 161, 191)" stroke-width="1" d="M1343.5000002292063,370.49998085986476C1358.5000002292063,370.49998085986476,1358.5000002292063,422.49998085986476,1373.5000002292063,422.49998085986476L1706.5000002292063,422.49998085986476"></path><path id="kity_path_53" fill="none" stroke="rgb(115, 161, 191)" stroke-width="1" d="M1246.5000002292063,474.49998085986476C1261.5000002292063,474.49998085986476,1261.5000002292063,474.49998085986476,1276.5000002292063,474.49998085986476L1343.5000002292063,474.49998085986476"></path><path id="kity_path_55" fill="none" stroke="rgb(115, 161, 191)" stroke-width="1" d="M1343.5000002292063,474.49998085986476C1358.5000002292063,474.49998085986476,1358.5000002292063,474.49998085986476,1373.5000002292063,474.49998085986476L1835.5000002292063,474.49998085986476"></path><path id="kity_path_57" fill="none" stroke="rgb(115, 161, 191)" stroke-width="1" d="M1246.5000002292063,474.49998085986476C1261.5000002292063,474.49998085986476,1261.5000002292063,526.4999808598648,1276.5000002292063,526.4999808598648L1355.5000002292063,526.4999808598648"></path><path id="kity_path_59" fill="none" stroke="rgb(115, 161, 191)" stroke-width="1" d="M1355.5000002292063,526.4999808598648C1370.5000002292063,526.4999808598648,1370.5000002292063,526.4999808598648,1385.5000002292063,526.4999808598648L1535.5000002292063,526.4999808598648"></path><path id="kity_path_61" fill="none" stroke="rgb(115, 161, 191)" stroke-width="1" d="M1246.5000002292063,474.49998085986476C1261.5000002292063,474.49998085986476,1261.5000002292063,578.4999808598648,1276.5000002292063,578.4999808598648L1355.5000002292063,578.4999808598648"></path><path id="kity_path_63" fill="none" stroke="rgb(115, 161, 191)" stroke-width="1" d="M1355.5000002292063,578.4999808598648C1370.5000002292063,578.4999808598648,1370.5000002292063,578.4999808598648,1385.5000002292063,578.4999808598648L1608.5000002292063,578.4999808598648"></path><path id="kity_path_65" fill="none" stroke="rgb(115, 161, 191)" stroke-width="1" d="M837.5000002292062,601.4999808598648A174,272,0,0,0,1011.5000002292062,873.4999808598648"></path><path id="kity_path_67" fill="none" stroke="rgb(115, 161, 191)" stroke-width="1" d="M1124.5000002292063,873.4999808598648C1139.5000002292063,873.4999808598648,1139.5000002292063,692.4999808598648,1154.5000002292063,692.4999808598648L1197.5000002292063,692.4999808598648"></path><path id="kity_path_69" fill="none" stroke="rgb(115, 161, 191)" stroke-width="1" d="M1197.5000002292063,692.4999808598648C1212.5000002292063,692.4999808598648,1212.5000002292063,640.4999808598648,1227.5000002292063,640.4999808598648L1437.5000002292063,640.4999808598648"></path><path id="kity_path_71" fill="none" stroke="rgb(115, 161, 191)" stroke-width="1" d="M1197.5000002292063,692.4999808598648C1212.5000002292063,692.4999808598648,1212.5000002292063,744.4999808598648,1227.5000002292063,744.4999808598648L1305.5000002292063,744.4999808598648"></path><path id="kity_path_73" fill="none" stroke="rgb(115, 161, 191)" stroke-width="1" d="M1305.5000002292063,744.4999808598648C1320.5000002292063,744.4999808598648,1320.5000002292063,692.4999808598648,1335.5000002292063,692.4999808598648L1474.5000002292063,692.4999808598648"></path><path id="kity_path_75" fill="none" stroke="rgb(115, 161, 191)" stroke-width="1" d="M1305.5000002292063,744.4999808598648C1320.5000002292063,744.4999808598648,1320.5000002292063,744.4999808598648,1335.5000002292063,744.4999808598648L1414.5000002292063,744.4999808598648"></path><path id="kity_path_77" fill="none" stroke="rgb(115, 161, 191)" stroke-width="1" d="M1305.5000002292063,744.4999808598648C1320.5000002292063,744.4999808598648,1320.5000002292063,796.4999808598648,1335.5000002292063,796.4999808598648L1426.5000002292063,796.4999808598648"></path><path id="kity_path_79" fill="none" stroke="rgb(115, 161, 191)" stroke-width="1" d="M1124.5000002292063,873.4999808598648C1139.5000002292063,873.4999808598648,1139.5000002292063,900.4999808598648,1154.5000002292063,900.4999808598648L1196.5000002292063,900.4999808598648"></path><path id="kity_path_81" fill="none" stroke="rgb(115, 161, 191)" stroke-width="1" d="M1196.5000002292063,900.4999808598648C1211.5000002292063,900.4999808598648,1211.5000002292063,848.4999808598648,1226.5000002292063,848.4999808598648L1292.5000002292063,848.4999808598648"></path><path id="kity_path_83" fill="none" stroke="rgb(115, 161, 191)" stroke-width="1" d="M1196.5000002292063,900.4999808598648C1211.5000002292063,900.4999808598648,1211.5000002292063,900.4999808598648,1226.5000002292063,900.4999808598648L1292.5000002292063,900.4999808598648"></path><path id="kity_path_85" fill="none" stroke="rgb(115, 161, 191)" stroke-width="1" d="M1196.5000002292063,900.4999808598648C1211.5000002292063,900.4999808598648,1211.5000002292063,952.4999808598648,1226.5000002292063,952.4999808598648L1304.5000002292063,952.4999808598648"></path><path id="kity_path_87" fill="none" stroke="rgb(115, 161, 191)" stroke-width="1" d="M1304.5000002292063,952.4999808598648C1319.5000002292063,952.4999808598648,1319.5000002292063,952.4999808598648,1334.5000002292063,952.4999808598648L1440.5000002292063,952.4999808598648"></path><path id="kity_path_89" fill="none" stroke="rgb(115, 161, 191)" stroke-width="1" d="M1124.5000002292063,873.4999808598648C1139.5000002292063,873.4999808598648,1139.5000002292063,1082.4999808598648,1154.5000002292063,1082.4999808598648L1208.5000002292063,1082.4999808598648"></path><path id="kity_path_91" fill="none" stroke="rgb(115, 161, 191)" stroke-width="1" d="M1208.5000002292063,1082.4999808598648C1223.5000002292063,1082.4999808598648,1223.5000002292063,1004.4999808598648,1238.5000002292063,1004.4999808598648L1316.5000002292063,1004.4999808598648"></path><path id="kity_path_93" fill="none" stroke="rgb(115, 161, 191)" stroke-width="1" d="M1316.5000002292063,1004.4999808598648C1331.5000002292063,1004.4999808598648,1331.5000002292063,1004.4999808598648,1346.5000002292063,1004.4999808598648L1556.5000002292063,1004.4999808598648"></path><path id="kity_path_95" fill="none" stroke="rgb(115, 161, 191)" stroke-width="1" d="M1208.5000002292063,1082.4999808598648C1223.5000002292063,1082.4999808598648,1223.5000002292063,1056.4999808598648,1238.5000002292063,1056.4999808598648L1316.5000002292063,1056.4999808598648"></path><path id="kity_path_97" fill="none" stroke="rgb(115, 161, 191)" stroke-width="1" d="M1316.5000002292063,1056.4999808598648C1331.5000002292063,1056.4999808598648,1331.5000002292063,1056.4999808598648,1346.5000002292063,1056.4999808598648L1533.5000002292063,1056.4999808598648"></path><path id="kity_path_99" fill="none" stroke="rgb(115, 161, 191)" stroke-width="1" d="M1208.5000002292063,1082.4999808598648C1223.5000002292063,1082.4999808598648,1223.5000002292063,1108.4999808598648,1238.5000002292063,1108.4999808598648L1328.5000002292063,1108.4999808598648"></path><path id="kity_path_101" fill="none" stroke="rgb(115, 161, 191)" stroke-width="1" d="M1328.5000002292063,1108.4999808598648C1343.5000002292063,1108.4999808598648,1343.5000002292063,1108.4999808598648,1358.5000002292063,1108.4999808598648L1485.5000002292063,1108.4999808598648"></path><path id="kity_path_103" fill="none" stroke="rgb(115, 161, 191)" stroke-width="1" d="M1208.5000002292063,1082.4999808598648C1223.5000002292063,1082.4999808598648,1223.5000002292063,1160.4999808598648,1238.5000002292063,1160.4999808598648L1320.5000002292063,1160.4999808598648"></path><path id="kity_path_105" fill="none" stroke="rgb(115, 161, 191)" stroke-width="1" d="M1320.5000002292063,1160.4999808598648C1335.5000002292063,1160.4999808598648,1335.5000002292063,1160.4999808598648,1350.5000002292063,1160.4999808598648L1441.5000002292063,1160.4999808598648"></path><path id="kity_path_107" fill="none" stroke="rgb(115, 161, 191)" stroke-width="1" d="M837.5000002292062,601.4999808598648A174,193,0,0,0,663.5000002292062,408.49998085986476"></path><path id="kity_path_109" fill="none" stroke="rgb(115, 161, 191)" stroke-width="1" d="M550.5000002292062,408.49998085986476C535.5000002292062,408.49998085986476,535.5000002292062,279.49998085986476,520.5000002292062,279.49998085986476L454.5000002292062,279.49998085986476"></path><path id="kity_path_111" fill="none" stroke="rgb(115, 161, 191)" stroke-width="1" d="M454.5000002292062,279.49998085986476C439.5000002292062,279.49998085986476,439.5000002292062,97.49998085986476,424.5000002292062,97.49998085986476L370.5000002292062,97.49998085986476"></path><path id="kity_path_113" fill="none" stroke="rgb(115, 161, 191)" stroke-width="1" d="M370.5000002292062,97.49998085986476C355.5000002292062,97.49998085986476,355.5000002292062,45.49998085986476,340.5000002292062,45.49998085986476L189.5000002292062,45.49998085986476"></path><path id="kity_path_115" fill="none" stroke="rgb(115, 161, 191)" stroke-width="1" d="M370.5000002292062,97.49998085986476C355.5000002292062,97.49998085986476,355.5000002292062,149.49998085986476,340.5000002292062,149.49998085986476L261.5000002292062,149.49998085986476"></path><path id="kity_path_117" fill="none" stroke="rgb(115, 161, 191)" stroke-width="1" d="M261.5000002292062,149.49998085986476C246.5000002292062,149.49998085986476,246.5000002292062,97.49998085986476,231.5000002292062,97.49998085986476L128.5000002292062,97.49998085986476"></path><path id="kity_path_119" fill="none" stroke="rgb(115, 161, 191)" stroke-width="1" d="M261.5000002292062,149.49998085986476C246.5000002292062,149.49998085986476,246.5000002292062,201.49998085986476,231.5000002292062,201.49998085986476L128.5000002292062,201.49998085986476"></path><path id="kity_path_121" fill="none" stroke="rgb(115, 161, 191)" stroke-width="1" d="M128.5000002292062,201.49998085986476C113.5000002292062,201.49998085986476,113.5000002292062,149.49998085986476,98.5000002292062,149.49998085986476L19.500000229206194,149.49998085986476"></path><path id="kity_path_123" fill="none" stroke="rgb(115, 161, 191)" stroke-width="1" d="M128.5000002292062,201.49998085986476C113.5000002292062,201.49998085986476,113.5000002292062,201.49998085986476,98.5000002292062,201.49998085986476L19.500000229206194,201.49998085986476"></path><path id="kity_path_125" fill="none" stroke="rgb(115, 161, 191)" stroke-width="1" d="M128.5000002292062,201.49998085986476C113.5000002292062,201.49998085986476,113.5000002292062,253.49998085986476,98.5000002292062,253.49998085986476L19.500000229206194,253.49998085986476"></path><path id="kity_path_127" fill="none" stroke="rgb(115, 161, 191)" stroke-width="1" d="M454.5000002292062,279.49998085986476C439.5000002292062,279.49998085986476,439.5000002292062,305.49998085986476,424.5000002292062,305.49998085986476L334.5000002292062,305.49998085986476"></path><path id="kity_path_129" fill="none" stroke="rgb(115, 161, 191)" stroke-width="1" d="M454.5000002292062,279.49998085986476C439.5000002292062,279.49998085986476,439.5000002292062,357.49998085986476,424.5000002292062,357.49998085986476L346.5000002292062,357.49998085986476"></path><path id="kity_path_131" fill="none" stroke="rgb(115, 161, 191)" stroke-width="1" d="M454.5000002292062,279.49998085986476C439.5000002292062,279.49998085986476,439.5000002292062,409.49998085986476,424.5000002292062,409.49998085986476L334.5000002292062,409.49998085986476"></path><path id="kity_path_133" fill="none" stroke="rgb(115, 161, 191)" stroke-width="1" d="M454.5000002292062,279.49998085986476C439.5000002292062,279.49998085986476,439.5000002292062,461.49998085986476,424.5000002292062,461.49998085986476L310.5000002292062,461.49998085986476"></path><path id="kity_path_135" fill="none" stroke="rgb(115, 161, 191)" stroke-width="1" d="M310.5000002292062,461.49998085986476C295.5000002292062,461.49998085986476,295.5000002292062,461.49998085986476,280.5000002292062,461.49998085986476L214.5000002292062,461.49998085986476"></path><path id="kity_path_137" fill="none" stroke="rgb(115, 161, 191)" stroke-width="1" d="M550.5000002292062,408.49998085986476C535.5000002292062,408.49998085986476,535.5000002292062,513.4999808598648,520.5000002292062,513.4999808598648L442.5000002292062,513.4999808598648"></path><path id="kity_path_139" fill="none" stroke="rgb(115, 161, 191)" stroke-width="1" d="M550.5000002292062,408.49998085986476C535.5000002292062,408.49998085986476,535.5000002292062,565.4999808598648,520.5000002292062,565.4999808598648L454.5000002292062,565.4999808598648"></path><path id="kity_path_141" fill="none" stroke="rgb(115, 161, 191)" stroke-width="1" d="M837.5000002292062,601.4999808598648A174,194,0,0,1,663.5000002292062,795.4999808598648"></path><path id="kity_path_143" fill="none" stroke="rgb(115, 161, 191)" stroke-width="1" d="M592.5000002292062,795.4999808598648C577.5000002292062,795.4999808598648,577.5000002292062,679.4999808598648,562.5000002292062,679.4999808598648L491.5000002292062,679.4999808598648"></path><path id="kity_path_145" fill="none" stroke="rgb(115, 161, 191)" stroke-width="1" d="M491.5000002292062,679.4999808598648C476.5000002292062,679.4999808598648,476.5000002292062,627.4999808598648,461.5000002292062,627.4999808598648L382.5000002292062,627.4999808598648"></path><path id="kity_path_147" fill="none" stroke="rgb(115, 161, 191)" stroke-width="1" d="M491.5000002292062,679.4999808598648C476.5000002292062,679.4999808598648,476.5000002292062,679.4999808598648,461.5000002292062,679.4999808598648L382.5000002292062,679.4999808598648"></path><path id="kity_path_149" fill="none" stroke="rgb(115, 161, 191)" stroke-width="1" d="M491.5000002292062,679.4999808598648C476.5000002292062,679.4999808598648,476.5000002292062,731.4999808598648,461.5000002292062,731.4999808598648L382.5000002292062,731.4999808598648"></path><path id="kity_path_151" fill="none" stroke="rgb(115, 161, 191)" stroke-width="1" d="M592.5000002292062,795.4999808598648C577.5000002292062,795.4999808598648,577.5000002292062,809.4999808598648,562.5000002292062,809.4999808598648L481.5000002292062,809.4999808598648"></path><path id="kity_path_153" fill="none" stroke="rgb(115, 161, 191)" stroke-width="1" d="M481.5000002292062,809.4999808598648C466.5000002292062,809.4999808598648,466.5000002292062,783.4999808598648,451.5000002292062,783.4999808598648L372.5000002292062,783.4999808598648"></path><path id="kity_path_155" fill="none" stroke="rgb(115, 161, 191)" stroke-width="1" d="M481.5000002292062,809.4999808598648C466.5000002292062,809.4999808598648,466.5000002292062,835.4999808598648,451.5000002292062,835.4999808598648L372.5000002292062,835.4999808598648"></path><path id="kity_path_157" fill="none" stroke="rgb(115, 161, 191)" stroke-width="1" d="M592.5000002292062,795.4999808598648C577.5000002292062,795.4999808598648,577.5000002292062,939.4999808598648,562.5000002292062,939.4999808598648L507.5000002292062,939.4999808598648"></path><path id="kity_path_159" fill="none" stroke="rgb(115, 161, 191)" stroke-width="1" d="M507.5000002292062,939.4999808598648C492.5000002292062,939.4999808598648,492.5000002292062,887.4999808598648,477.5000002292062,887.4999808598648L410.5000002292062,887.4999808598648"></path><path id="kity_path_161" fill="none" stroke="rgb(115, 161, 191)" stroke-width="1" d="M507.5000002292062,939.4999808598648C492.5000002292062,939.4999808598648,492.5000002292062,939.4999808598648,477.5000002292062,939.4999808598648L398.5000002292062,939.4999808598648"></path><path id="kity_path_163" fill="none" stroke="rgb(115, 161, 191)" stroke-width="1" d="M507.5000002292062,939.4999808598648C492.5000002292062,939.4999808598648,492.5000002292062,991.4999808598648,477.5000002292062,991.4999808598648L398.5000002292062,991.4999808598648"></path></g><g id="minder_node1"><path id="node_outline1" fill="rgb(115, 161, 191)" stroke="rgb(57, 80, 96)" d="M786.5000002292062,581.4999808598648h102a5,5,0,0,1,5,5v30a5,5,0,0,1,-5,5h-102a5,5,0,0,1,-5,-5v-30a5,5,0,0,1,5,-5z" stroke-width="3"></path><g id="node_text1" fill="white"><text id="kity_text_22" text-rendering="inherit" font-size="16" dy=".8em" y="593.4999808598648" x="805.5000002292062">数据结构</text></g></g><g id="kity_g_12"><path id="kity_path_13" fill="none" stroke="none" d="M805.5000002292062,601.4999808598648h0v0h0z"></path></g><g id="kity_g_14"><path id="kity_path_15" fill="none" stroke="none" d="M805.5000002292062,601.4999808598648h0v0h0z"></path><path id="kity_path_16" fill="none" stroke="none"></path></g><g id="minder_node2"><g id="node_expander17" style="cursor: pointer;"><path id="kity_path_414" fill="white" stroke="gray" d="M1012.4999972890714,330.4999846778135A6,6,0,1,1,1000.4999972890714,330.4999846778135A6,6,0,1,1,1012.4999972890714,330.4999846778135"></path><path id="kity_path_415" fill="none" stroke="gray" d="M1001.9999972890714,330.4999846778135L1010.9999972890714,330.4999846778135"></path></g><path id="node_outline18" fill="rgb(238, 243, 246)" stroke="rgb(115, 161, 191)" d="M1016.4999970170575,317.4999846778135h119a3,3,0,0,1,3,3v20a3,3,0,0,1,-3,3h-119a3,3,0,0,1,-3,-3v-20a3,3,0,0,1,3,-3z" stroke-width="1"></path><g id="node_text18" fill="black"><text id="kity_text_197" text-rendering="inherit" font-size="14" dy=".8em" y="323.4999846778135" x="1033.4999970170575">非受限线性表</text></g></g><g id="minder_node3"><g id="node_expander5" style="cursor: pointer;"><path id="kity_path_378" fill="white" stroke="gray" d="M1178.4999950587737,200.49998650930172A6,6,0,1,1,1166.4999950587737,200.49998650930172A6,6,0,1,1,1178.4999950587737,200.49998650930172"></path><path id="kity_path_379" fill="none" stroke="gray" d="M1167.9999950587737,200.49998650930172L1176.9999950587737,200.49998650930172"></path></g><path id="node_outline6" fill="none" stroke="none" d="M1183.4999948333598,189.49998650930172h58a5,5,0,0,1,5,5v12a5,5,0,0,1,-5,5h-58a5,5,0,0,1,-5,-5v-12a5,5,0,0,1,5,-5z"></path><g id="node_text6" fill="black"><text id="kity_text_173" text-rendering="inherit" font-size="12" dy=".8em" y="194.49998650930172" x="1188.4999948333598">顺序结构</text></g></g><g id="minder_node4"><g id="node_expander4" style="cursor: pointer;"><path id="kity_path_375" fill="white" stroke="gray" d="M1286.4999935372298,200.49998650930172A6,6,0,1,1,1274.4999935372298,200.49998650930172A6,6,0,1,1,1286.4999935372298,200.49998650930172"></path><path id="kity_path_376" fill="none" stroke="gray" d="M1275.9999935372298,200.49998650930172L1284.9999935372298,200.49998650930172"></path></g><path id="node_outline5" fill="none" stroke="none" d="M1291.4999933118158,189.49998650930172h35a5,5,0,0,1,5,5v12a5,5,0,0,1,-5,5h-35a5,5,0,0,1,-5,-5v-12a5,5,0,0,1,5,-5z"></path><g id="node_text5" fill="black"><text id="kity_text_171" text-rendering="inherit" font-size="12" dy=".8em" y="194.49998650930172" x="1296.4999933118158">数组</text></g></g><g id="minder_node5"><g id="node_expander1" display="none" style="cursor: pointer;"><path id="kity_path_366" fill="white" stroke="gray" d="M1371.4999923397183,148.49998724189703A6,6,0,1,1,1359.4999923397183,148.49998724189703A6,6,0,1,1,1371.4999923397183,148.49998724189703"></path><path id="kity_path_367" fill="none" stroke="gray"></path></g><path id="node_outline2" fill="none" stroke="none" d="M1376.4999921143044,137.49998724189703h126a5,5,0,0,1,5,5v12a5,5,0,0,1,-5,5h-126a5,5,0,0,1,-5,-5v-12a5,5,0,0,1,5,-5z"></path><g id="node_text2" fill="black"><text id="kity_text_165" text-rendering="inherit" font-size="12" dy=".8em" y="142.49998724189703" x="1381.4999921143044">支持 O(1) 的随机访问</text></g></g><g id="minder_node6"><g id="node_expander2" display="none" style="cursor: pointer;"><path id="kity_path_369" fill="white" stroke="gray" d="M1371.4999923397183,200.49998650930172A6,6,0,1,1,1359.4999923397183,200.49998650930172A6,6,0,1,1,1371.4999923397183,200.49998650930172"></path><path id="kity_path_370" fill="none" stroke="gray"></path></g><path id="node_outline3" fill="none" stroke="none" d="M1376.4999921143044,189.49998650930172h151a5,5,0,0,1,5,5v12a5,5,0,0,1,-5,5h-151a5,5,0,0,1,-5,-5v-12a5,5,0,0,1,5,-5z"></path><g id="node_text3" fill="black"><text id="kity_text_167" text-rendering="inherit" font-size="12" dy=".8em" y="194.49998650930172" x="1381.4999921143044">平均为 O(n) 的插入和删除</text></g></g><g id="minder_node7"><g id="node_expander3" display="none" style="cursor: pointer;"><path id="kity_path_372" fill="white" stroke="gray" d="M1371.4999923397183,252.4999857767064A6,6,0,1,1,1359.4999923397183,252.4999857767064A6,6,0,1,1,1371.4999923397183,252.4999857767064"></path><path id="kity_path_373" fill="none" stroke="gray"></path></g><path id="node_outline4" fill="none" stroke="none" d="M1376.4999921143044,241.4999857767064h214a5,5,0,0,1,5,5v12a5,5,0,0,1,-5,5h-214a5,5,0,0,1,-5,-5v-12a5,5,0,0,1,5,-5z"></path><g id="node_text4" fill="black"><text id="kity_text_169" text-rendering="inherit" font-size="12" dy=".8em" y="246.4999857767064" x="1381.4999921143044">警惕越界错误，导致 Stack Over Flow</text></g></g><g id="minder_node8"><g id="node_expander16" style="cursor: pointer;"><path id="kity_path_411" fill="white" stroke="gray" d="M1178.4999950587737,460.4999828463251A6,6,0,1,1,1166.4999950587737,460.4999828463251A6,6,0,1,1,1178.4999950587737,460.4999828463251"></path><path id="kity_path_412" fill="none" stroke="gray" d="M1167.9999950587737,460.4999828463251L1176.9999950587737,460.4999828463251"></path></g><path id="node_outline17" fill="none" stroke="none" d="M1183.4999948333598,449.4999828463251h58a5,5,0,0,1,5,5v12a5,5,0,0,1,-5,5h-58a5,5,0,0,1,-5,-5v-12a5,5,0,0,1,5,-5z"></path><g id="node_text17" fill="black"><text id="kity_text_195" text-rendering="inherit" font-size="12" dy=".8em" y="454.4999828463251" x="1188.4999948333598">链式结构</text></g></g><g id="minder_node9"><g id="node_expander9" style="cursor: pointer;"><path id="kity_path_390" fill="white" stroke="gray" d="M1286.4999935372298,356.49998431151573A6,6,0,1,1,1274.4999935372298,356.49998431151573A6,6,0,1,1,1286.4999935372298,356.49998431151573"></path><path id="kity_path_391" fill="none" stroke="gray" d="M1275.9999935372298,356.49998431151573L1284.9999935372298,356.49998431151573"></path></g><path id="node_outline10" fill="none" stroke="none" d="M1291.4999933118158,345.49998431151573h47a5,5,0,0,1,5,5v12a5,5,0,0,1,-5,5h-47a5,5,0,0,1,-5,-5v-12a5,5,0,0,1,5,-5z"></path><g id="node_text10" fill="black"><text id="kity_text_181" text-rendering="inherit" font-size="12" dy=".8em" y="350.49998431151573" x="1296.4999933118158">单链表</text></g></g><g id="minder_node10"><g id="node_expander6" display="none" style="cursor: pointer;"><path id="kity_path_381" fill="white" stroke="gray" d="M1383.4999921706576,304.4999850441111A6,6,0,1,1,1371.4999921706576,304.4999850441111A6,6,0,1,1,1383.4999921706576,304.4999850441111"></path><path id="kity_path_382" fill="none" stroke="gray"></path></g><path id="node_outline7" fill="none" stroke="none" d="M1388.4999919452437,293.4999850441111h214a5,5,0,0,1,5,5v12a5,5,0,0,1,-5,5h-214a5,5,0,0,1,-5,-5v-12a5,5,0,0,1,5,-5z"></path><g id="node_text7" fill="black"><text id="kity_text_175" text-rendering="inherit" font-size="12" dy=".8em" y="298.4999850441111" x="1393.4999919452437">不支持随机访问，需要遍历去访问结点</text></g></g><g id="minder_node11"><g id="node_expander7" display="none" style="cursor: pointer;"><path id="kity_path_384" fill="white" stroke="gray" d="M1383.4999921706576,356.49998431151573A6,6,0,1,1,1371.4999921706576,356.49998431151573A6,6,0,1,1,1383.4999921706576,356.49998431151573"></path><path id="kity_path_385" fill="none" stroke="gray"></path></g><path id="node_outline8" fill="none" stroke="none" d="M1388.4999919452437,345.49998431151573h266a5,5,0,0,1,5,5v12a5,5,0,0,1,-5,5h-266a5,5,0,0,1,-5,-5v-12a5,5,0,0,1,5,-5z"></path><g id="node_text8" fill="black"><text id="kity_text_177" text-rendering="inherit" font-size="12" dy=".8em" y="350.49998431151573" x="1393.4999919452437">插入和删除只需要移动指针，时间复杂度为 O(1)</text></g></g><g id="minder_node12"><g id="node_expander8" display="none" style="cursor: pointer;"><path id="kity_path_387" fill="white" stroke="gray" d="M1383.4999921706576,408.4999835789204A6,6,0,1,1,1371.4999921706576,408.4999835789204A6,6,0,1,1,1383.4999921706576,408.4999835789204"></path><path id="kity_path_388" fill="none" stroke="gray"></path></g><path id="node_outline9" fill="none" stroke="none" d="M1388.4999919452437,397.4999835789204h313a5,5,0,0,1,5,5v12a5,5,0,0,1,-5,5h-313a5,5,0,0,1,-5,-5v-12a5,5,0,0,1,5,-5z"></path><g id="node_text9" fill="black"><text id="kity_text_179" text-rendering="inherit" font-size="12" dy=".8em" y="402.4999835789204" x="1393.4999919452437">每个结点需要额外的空间存储指针，需要的内存比数组大&#xa0;</text></g></g><g id="minder_node13"><g id="node_expander11" style="cursor: pointer;"><path id="kity_path_396" fill="white" stroke="gray" d="M1286.4999935372298,460.4999828463251A6,6,0,1,1,1274.4999935372298,460.4999828463251A6,6,0,1,1,1286.4999935372298,460.4999828463251"></path><path id="kity_path_397" fill="none" stroke="gray" d="M1275.9999935372298,460.4999828463251L1284.9999935372298,460.4999828463251"></path></g><path id="node_outline12" fill="none" stroke="none" d="M1291.4999933118158,449.4999828463251h47a5,5,0,0,1,5,5v12a5,5,0,0,1,-5,5h-47a5,5,0,0,1,-5,-5v-12a5,5,0,0,1,5,-5z"></path><g id="node_text12" fill="black"><text id="kity_text_185" text-rendering="inherit" font-size="12" dy=".8em" y="454.4999828463251" x="1296.4999933118158">双链表</text></g></g><g id="minder_node14"><g id="node_expander10" display="none" style="cursor: pointer;"><path id="kity_path_393" fill="white" stroke="gray" d="M1383.4999921706576,460.4999828463251A6,6,0,1,1,1371.4999921706576,460.4999828463251A6,6,0,1,1,1383.4999921706576,460.4999828463251"></path><path id="kity_path_394" fill="none" stroke="gray"></path></g><path id="node_outline11" fill="none" stroke="none" d="M1388.4999919452437,449.4999828463251h442a5,5,0,0,1,5,5v12a5,5,0,0,1,-5,5h-442a5,5,0,0,1,-5,-5v-12a5,5,0,0,1,5,-5z"></path><g id="node_text11" fill="black"><text id="kity_text_183" text-rendering="inherit" font-size="12" dy=".8em" y="454.4999828463251" x="1393.4999919452437">在单链表的基础上，除头结点外，每个结点多了一个存放前驱结点内存地址的指针</text></g></g><g id="minder_node15"><g id="node_expander13" style="cursor: pointer;"><path id="kity_path_402" fill="white" stroke="gray" d="M1286.4999935372298,512.4999821137299A6,6,0,1,1,1274.4999935372298,512.4999821137299A6,6,0,1,1,1286.4999935372298,512.4999821137299"></path><path id="kity_path_403" fill="none" stroke="gray" d="M1275.9999935372298,512.4999821137299L1284.9999935372298,512.4999821137299"></path></g><path id="node_outline14" fill="none" stroke="none" d="M1291.4999933118158,501.49998211372986h59a5,5,0,0,1,5,5v12a5,5,0,0,1,-5,5h-59a5,5,0,0,1,-5,-5v-12a5,5,0,0,1,5,-5z"></path><g id="node_text14" fill="black"><text id="kity_text_189" text-rendering="inherit" font-size="12" dy=".8em" y="506.49998211372986" x="1296.4999933118158">循环链表</text></g></g><g id="minder_node16"><g id="node_expander12" display="none" style="cursor: pointer;"><path id="kity_path_399" fill="white" stroke="gray" d="M1395.4999920015973,512.4999821137299A6,6,0,1,1,1383.4999920015973,512.4999821137299A6,6,0,1,1,1395.4999920015973,512.4999821137299"></path><path id="kity_path_400" fill="none" stroke="gray"></path></g><path id="node_outline13" fill="none" stroke="none" d="M1400.4999917761834,501.49998211372986h130a5,5,0,0,1,5,5v12a5,5,0,0,1,-5,5h-130a5,5,0,0,1,-5,-5v-12a5,5,0,0,1,5,-5z"></path><g id="node_text13" fill="black"><text id="kity_text_187" text-rendering="inherit" font-size="12" dy=".8em" y="506.49998211372986" x="1405.4999917761834">尾节点指针指向头结点</text></g></g><g id="minder_node17"><g id="node_expander15" style="cursor: pointer;"><path id="kity_path_408" fill="white" stroke="gray" d="M1286.4999935372298,564.4999813811345A6,6,0,1,1,1274.4999935372298,564.4999813811345A6,6,0,1,1,1286.4999935372298,564.4999813811345"></path><path id="kity_path_409" fill="none" stroke="gray" d="M1275.9999935372298,564.4999813811345L1284.9999935372298,564.4999813811345"></path></g><path id="node_outline16" fill="none" stroke="none" d="M1291.4999933118158,553.4999813811345h59a5,5,0,0,1,5,5v12a5,5,0,0,1,-5,5h-59a5,5,0,0,1,-5,-5v-12a5,5,0,0,1,5,-5z"></path><g id="node_text16" fill="black"><text id="kity_text_193" text-rendering="inherit" font-size="12" dy=".8em" y="558.4999813811345" x="1296.4999933118158">静态链表 </text></g></g><g id="minder_node18"><g id="node_expander14" display="none" style="cursor: pointer;"><path id="kity_path_405" fill="white" stroke="gray" d="M1395.4999920015973,564.4999813811345A6,6,0,1,1,1383.4999920015973,564.4999813811345A6,6,0,1,1,1395.4999920015973,564.4999813811345"></path><path id="kity_path_406" fill="none" stroke="gray"></path></g><path id="node_outline15" fill="none" stroke="none" d="M1400.4999917761834,553.4999813811345h203a5,5,0,0,1,5,5v12a5,5,0,0,1,-5,5h-203a5,5,0,0,1,-5,-5v-12a5,5,0,0,1,5,-5z"></path><g id="node_text15" fill="black"><text id="kity_text_191" text-rendering="inherit" font-size="12" dy=".8em" y="558.4999813811345" x="1405.4999917761834">借助数组，伴随指向后继结点的指针</text></g></g><g id="minder_node19"><g id="node_expander38" style="cursor: pointer;"><path id="kity_path_477" fill="white" stroke="gray" d="M1012.4999972890714,873.4999770278278A6,6,0,1,1,1000.4999972890714,873.4999770278278A6,6,0,1,1,1012.4999972890714,873.4999770278278"></path><path id="kity_path_478" fill="none" stroke="gray" d="M1001.9999972890714,873.4999770278278L1010.9999972890714,873.4999770278278"></path></g><path id="node_outline39" fill="rgb(238, 243, 246)" stroke="rgb(115, 161, 191)" d="M1016.4999970170575,860.4999770278278h105a3,3,0,0,1,3,3v20a3,3,0,0,1,-3,3h-105a3,3,0,0,1,-3,-3v-20a3,3,0,0,1,3,-3z" stroke-width="1"></path><g id="node_text39" fill="black"><text id="kity_text_239" text-rendering="inherit" font-size="14" dy=".8em" y="866.4999770278278" x="1033.4999970170575">受限线性表</text></g></g><g id="minder_node20"><g id="node_expander23" style="cursor: pointer;"><path id="kity_path_432" fill="white" stroke="gray" d="M1164.499995256011,678.4999797750602A6,6,0,1,1,1152.499995256011,678.4999797750602A6,6,0,1,1,1164.499995256011,678.4999797750602"></path><path id="kity_path_433" fill="none" stroke="gray" d="M1153.999995256011,678.4999797750602L1162.999995256011,678.4999797750602"></path></g><path id="node_outline24" fill="none" stroke="none" d="M1169.4999950305971,667.4999797750602h23a5,5,0,0,1,5,5v12a5,5,0,0,1,-5,5h-23a5,5,0,0,1,-5,-5v-12a5,5,0,0,1,5,-5z"></path><g id="node_text24" fill="black"><text id="kity_text_209" text-rendering="inherit" font-size="12" dy=".8em" y="672.4999797750602" x="1174.4999950305971">栈</text></g></g><g id="minder_node21"><g id="node_expander18" display="none" style="cursor: pointer;"><path id="kity_path_417" fill="white" stroke="gray" d="M1237.49999422756,626.4999805076554A6,6,0,1,1,1225.49999422756,626.4999805076554A6,6,0,1,1,1237.49999422756,626.4999805076554"></path><path id="kity_path_418" fill="none" stroke="gray"></path></g><path id="node_outline19" fill="none" stroke="none" d="M1242.499994002146,615.4999805076554h190a5,5,0,0,1,5,5v12a5,5,0,0,1,-5,5h-190a5,5,0,0,1,-5,-5v-12a5,5,0,0,1,5,-5z"></path><g id="node_text19" fill="black"><text id="kity_text_199" text-rendering="inherit" font-size="12" dy=".8em" y="620.4999805076554" x="1247.499994002146">顺序和链式都可以实现，先进后出</text></g></g><g id="minder_node22"><g id="node_expander22" style="cursor: pointer;"><path id="kity_path_429" fill="white" stroke="gray" d="M1237.49999422756,730.4999790424648A6,6,0,1,1,1225.49999422756,730.4999790424648A6,6,0,1,1,1237.49999422756,730.4999790424648"></path><path id="kity_path_430" fill="none" stroke="gray" d="M1226.99999422756,730.4999790424648L1235.99999422756,730.4999790424648"></path></g><path id="node_outline23" fill="none" stroke="none" d="M1242.499994002146,719.4999790424648h58a5,5,0,0,1,5,5v12a5,5,0,0,1,-5,5h-58a5,5,0,0,1,-5,-5v-12a5,5,0,0,1,5,-5z"></path><g id="node_text23" fill="black"><text id="kity_text_207" text-rendering="inherit" font-size="12" dy=".8em" y="724.4999790424648" x="1247.499994002146">实际应用</text></g></g><g id="minder_node23"><g id="node_expander19" display="none" style="cursor: pointer;"><path id="kity_path_420" fill="white" stroke="gray" d="M1345.4999927060157,678.4999797750602A6,6,0,1,1,1333.4999927060157,678.4999797750602A6,6,0,1,1,1345.4999927060157,678.4999797750602"></path><path id="kity_path_421" fill="none" stroke="gray"></path></g><path id="node_outline20" fill="none" stroke="none" d="M1350.4999924806018,667.4999797750602h119a5,5,0,0,1,5,5v12a5,5,0,0,1,-5,5h-119a5,5,0,0,1,-5,-5v-12a5,5,0,0,1,5,-5z"></path><g id="node_text20" fill="black"><text id="kity_text_201" text-rendering="inherit" font-size="12" dy=".8em" y="672.4999797750602" x="1355.4999924806018">浏览器的前进与后退</text></g></g><g id="minder_node24"><g id="node_expander20" display="none" style="cursor: pointer;"><path id="kity_path_423" fill="white" stroke="gray" d="M1345.4999927060157,730.4999790424648A6,6,0,1,1,1333.4999927060157,730.4999790424648A6,6,0,1,1,1345.4999927060157,730.4999790424648"></path><path id="kity_path_424" fill="none" stroke="gray"></path></g><path id="node_outline21" fill="none" stroke="none" d="M1350.4999924806018,719.4999790424648h59a5,5,0,0,1,5,5v12a5,5,0,0,1,-5,5h-59a5,5,0,0,1,-5,-5v-12a5,5,0,0,1,5,-5z"></path><g id="node_text21" fill="black"><text id="kity_text_203" text-rendering="inherit" font-size="12" dy=".8em" y="724.4999790424648" x="1355.4999924806018">括号匹配</text></g></g><g id="minder_node25"><g id="node_expander21" display="none" style="cursor: pointer;"><path id="kity_path_426" fill="white" stroke="gray" d="M1345.4999927060157,782.4999783098696A6,6,0,1,1,1333.4999927060157,782.4999783098696A6,6,0,1,1,1345.4999927060157,782.4999783098696"></path><path id="kity_path_427" fill="none" stroke="gray"></path></g><path id="node_outline22" fill="none" stroke="none" d="M1350.4999924806018,771.4999783098696h71a5,5,0,0,1,5,5v12a5,5,0,0,1,-5,5h-71a5,5,0,0,1,-5,-5v-12a5,5,0,0,1,5,-5z"></path><g id="node_text22" fill="black"><text id="kity_text_205" text-rendering="inherit" font-size="12" dy=".8em" y="776.4999783098696" x="1355.4999924806018">表达式计算 </text></g></g><g id="minder_node26"><g id="node_expander28" style="cursor: pointer;"><path id="kity_path_447" fill="white" stroke="gray" d="M1164.499995256011,886.4999768446789A6,6,0,1,1,1152.499995256011,886.4999768446789A6,6,0,1,1,1164.499995256011,886.4999768446789"></path><path id="kity_path_448" fill="none" stroke="gray" d="M1153.999995256011,886.4999768446789L1162.999995256011,886.4999768446789"></path></g><path id="node_outline29" fill="none" stroke="none" d="M1169.4999950305971,875.4999768446789h22a5,5,0,0,1,5,5v12a5,5,0,0,1,-5,5h-22a5,5,0,0,1,-5,-5v-12a5,5,0,0,1,5,-5z"></path><g id="node_text29" fill="black"><text id="kity_text_219" text-rendering="inherit" font-size="12" dy=".8em" y="880.4999768446789" x="1174.4999950305971">堆</text></g></g><g id="minder_node27"><g id="node_expander24" display="none" style="cursor: pointer;"><path id="kity_path_435" fill="white" stroke="gray" d="M1236.4999942416484,834.4999775772742A6,6,0,1,1,1224.4999942416484,834.4999775772742A6,6,0,1,1,1236.4999942416484,834.4999775772742"></path><path id="kity_path_436" fill="none" stroke="gray"></path></g><path id="node_outline25" fill="none" stroke="none" d="M1241.4999940162345,823.4999775772742h46a5,5,0,0,1,5,5v12a5,5,0,0,1,-5,5h-46a5,5,0,0,1,-5,-5v-12a5,5,0,0,1,5,-5z"></path><g id="node_text25" fill="black"><text id="kity_text_211" text-rendering="inherit" font-size="12" dy=".8em" y="828.4999775772742" x="1246.4999940162345">大顶堆</text></g></g><g id="minder_node28"><g id="node_expander25" display="none" style="cursor: pointer;"><path id="kity_path_438" fill="white" stroke="gray" d="M1236.4999942416484,886.4999768446789A6,6,0,1,1,1224.4999942416484,886.4999768446789A6,6,0,1,1,1236.4999942416484,886.4999768446789"></path><path id="kity_path_439" fill="none" stroke="gray"></path></g><path id="node_outline26" fill="none" stroke="none" d="M1241.4999940162345,875.4999768446789h46a5,5,0,0,1,5,5v12a5,5,0,0,1,-5,5h-46a5,5,0,0,1,-5,-5v-12a5,5,0,0,1,5,-5z"></path><g id="node_text26" fill="black"><text id="kity_text_213" text-rendering="inherit" font-size="12" dy=".8em" y="880.4999768446789" x="1246.4999940162345">小顶堆</text></g></g><g id="minder_node29"><g id="node_expander27" style="cursor: pointer;"><path id="kity_path_444" fill="white" stroke="gray" d="M1236.4999942416484,938.4999761120837A6,6,0,1,1,1224.4999942416484,938.4999761120837A6,6,0,1,1,1236.4999942416484,938.4999761120837"></path><path id="kity_path_445" fill="none" stroke="gray" d="M1225.9999942416484,938.4999761120837L1234.9999942416484,938.4999761120837"></path></g><path id="node_outline28" fill="none" stroke="none" d="M1241.4999940162345,927.4999761120837h58a5,5,0,0,1,5,5v12a5,5,0,0,1,-5,5h-58a5,5,0,0,1,-5,-5v-12a5,5,0,0,1,5,-5z"></path><g id="node_text28" fill="black"><text id="kity_text_217" text-rendering="inherit" font-size="12" dy=".8em" y="932.4999761120837" x="1246.4999940162345">实际应用 </text></g></g><g id="minder_node30"><g id="node_expander26" display="none" style="cursor: pointer;"><path id="kity_path_441" fill="white" stroke="gray" d="M1344.4999927201043,938.4999761120837A6,6,0,1,1,1332.4999927201043,938.4999761120837A6,6,0,1,1,1344.4999927201043,938.4999761120837"></path><path id="kity_path_442" fill="none" stroke="gray"></path></g><path id="node_outline27" fill="none" stroke="none" d="M1349.4999924946903,927.4999761120837h86a5,5,0,0,1,5,5v12a5,5,0,0,1,-5,5h-86a5,5,0,0,1,-5,-5v-12a5,5,0,0,1,5,-5z"></path><g id="node_text27" fill="black"><text id="kity_text_215" text-rendering="inherit" font-size="12" dy=".8em" y="932.4999761120837" x="1354.4999924946903">找第 K 大元素</text></g></g><g id="minder_node31"><g id="node_expander37" style="cursor: pointer;"><path id="kity_path_474" fill="white" stroke="gray" d="M1164.499995256011,1068.4999742805953A6,6,0,1,1,1152.499995256011,1068.4999742805953A6,6,0,1,1,1164.499995256011,1068.4999742805953"></path><path id="kity_path_475" fill="none" stroke="gray" d="M1153.999995256011,1068.4999742805953L1162.999995256011,1068.4999742805953"></path></g><path id="node_outline38" fill="none" stroke="none" d="M1169.4999950305971,1057.4999742805953h34a5,5,0,0,1,5,5v12a5,5,0,0,1,-5,5h-34a5,5,0,0,1,-5,-5v-12a5,5,0,0,1,5,-5z"></path><g id="node_text38" fill="black"><text id="kity_text_237" text-rendering="inherit" font-size="12" dy=".8em" y="1062.4999742805953" x="1174.4999950305971">队列 </text></g></g><g id="minder_node32"><g id="node_expander30" style="cursor: pointer;"><path id="kity_path_453" fill="white" stroke="gray" d="M1248.499994072588,990.4999753794883A6,6,0,1,1,1236.499994072588,990.4999753794883A6,6,0,1,1,1248.499994072588,990.4999753794883"></path><path id="kity_path_454" fill="none" stroke="gray" d="M1237.999994072588,990.4999753794883L1246.999994072588,990.4999753794883"></path></g><path id="node_outline31" fill="none" stroke="none" d="M1253.499993847174,979.4999753794883h58a5,5,0,0,1,5,5v12a5,5,0,0,1,-5,5h-58a5,5,0,0,1,-5,-5v-12a5,5,0,0,1,5,-5z"></path><g id="node_text31" fill="black"><text id="kity_text_223" text-rendering="inherit" font-size="12" dy=".8em" y="984.4999753794883" x="1258.499993847174">普通队列</text></g></g><g id="minder_node33"><g id="node_expander29" display="none" style="cursor: pointer;"><path id="kity_path_450" fill="white" stroke="gray" d="M1356.4999925510435,990.4999753794883A6,6,0,1,1,1344.4999925510435,990.4999753794883A6,6,0,1,1,1356.4999925510435,990.4999753794883"></path><path id="kity_path_451" fill="none" stroke="gray"></path></g><path id="node_outline30" fill="none" stroke="none" d="M1361.4999923256296,979.4999753794883h190a5,5,0,0,1,5,5v12a5,5,0,0,1,-5,5h-190a5,5,0,0,1,-5,-5v-12a5,5,0,0,1,5,-5z"></path><g id="node_text30" fill="black"><text id="kity_text_221" text-rendering="inherit" font-size="12" dy=".8em" y="984.4999753794883" x="1366.4999923256296">顺序和链式都可以实现，先进先出</text></g></g><g id="minder_node34"><g id="node_expander32" style="cursor: pointer;"><path id="kity_path_459" fill="white" stroke="gray" d="M1248.499994072588,1042.499974646893A6,6,0,1,1,1236.499994072588,1042.499974646893A6,6,0,1,1,1248.499994072588,1042.499974646893"></path><path id="kity_path_460" fill="none" stroke="gray" d="M1237.999994072588,1042.499974646893L1246.999994072588,1042.499974646893"></path></g><path id="node_outline33" fill="none" stroke="none" d="M1253.499993847174,1031.499974646893h58a5,5,0,0,1,5,5v12a5,5,0,0,1,-5,5h-58a5,5,0,0,1,-5,-5v-12a5,5,0,0,1,5,-5z"></path><g id="node_text33" fill="black"><text id="kity_text_227" text-rendering="inherit" font-size="12" dy=".8em" y="1036.499974646893" x="1258.499993847174">双边队列</text></g></g><g id="minder_node35"><g id="node_expander31" display="none" style="cursor: pointer;"><path id="kity_path_456" fill="white" stroke="gray" d="M1356.4999925510435,1042.499974646893A6,6,0,1,1,1344.4999925510435,1042.499974646893A6,6,0,1,1,1356.4999925510435,1042.499974646893"></path><path id="kity_path_457" fill="none" stroke="gray"></path></g><path id="node_outline32" fill="none" stroke="none" d="M1361.4999923256296,1031.499974646893h167a5,5,0,0,1,5,5v12a5,5,0,0,1,-5,5h-167a5,5,0,0,1,-5,-5v-12a5,5,0,0,1,5,-5z"></path><g id="node_text32" fill="black"><text id="kity_text_225" text-rendering="inherit" font-size="12" dy=".8em" y="1036.499974646893" x="1366.4999923256296">入口和出口都可以进队和出队</text></g></g><g id="minder_node36"><g id="node_expander34" style="cursor: pointer;"><path id="kity_path_465" fill="white" stroke="gray" d="M1248.499994072588,1094.4999739142977A6,6,0,1,1,1236.499994072588,1094.4999739142977A6,6,0,1,1,1248.499994072588,1094.4999739142977"></path><path id="kity_path_466" fill="none" stroke="gray" d="M1237.999994072588,1094.4999739142977L1246.999994072588,1094.4999739142977"></path></g><path id="node_outline35" fill="none" stroke="none" d="M1253.499993847174,1083.4999739142977h70a5,5,0,0,1,5,5v12a5,5,0,0,1,-5,5h-70a5,5,0,0,1,-5,-5v-12a5,5,0,0,1,5,-5z"></path><g id="node_text35" fill="black"><text id="kity_text_231" text-rendering="inherit" font-size="12" dy=".8em" y="1088.4999739142977" x="1258.499993847174">优先级队列</text></g></g><g id="minder_node37"><g id="node_expander33" display="none" style="cursor: pointer;"><path id="kity_path_462" fill="white" stroke="gray" d="M1368.4999923819835,1094.4999739142977A6,6,0,1,1,1356.4999923819835,1094.4999739142977A6,6,0,1,1,1368.4999923819835,1094.4999739142977"></path><path id="kity_path_463" fill="none" stroke="gray"></path></g><path id="node_outline34" fill="none" stroke="none" d="M1373.4999921565695,1083.4999739142977h107a5,5,0,0,1,5,5v12a5,5,0,0,1,-5,5h-107a5,5,0,0,1,-5,-5v-12a5,5,0,0,1,5,-5z"></path><g id="node_text34" fill="black"><text id="kity_text_229" text-rendering="inherit" font-size="12" dy=".8em" y="1088.4999739142977" x="1378.4999921565695">根据优先级来出队</text></g></g><g id="minder_node38"><g id="node_expander36" style="cursor: pointer;"><path id="kity_path_471" fill="white" stroke="gray" d="M1248.499994072588,1146.4999731817024A6,6,0,1,1,1236.499994072588,1146.4999731817024A6,6,0,1,1,1248.499994072588,1146.4999731817024"></path><path id="kity_path_472" fill="none" stroke="gray" d="M1237.999994072588,1146.4999731817024L1246.999994072588,1146.4999731817024"></path></g><path id="node_outline37" fill="none" stroke="none" d="M1253.499993847174,1135.4999731817024h62a5,5,0,0,1,5,5v12a5,5,0,0,1,-5,5h-62a5,5,0,0,1,-5,-5v-12a5,5,0,0,1,5,-5z"></path><g id="node_text37" fill="black"><text id="kity_text_235" text-rendering="inherit" font-size="12" dy=".8em" y="1140.4999731817024" x="1258.499993847174">实际应用&#xa0;</text></g></g><g id="minder_node39"><g id="node_expander35" display="none" style="cursor: pointer;"><path id="kity_path_468" fill="white" stroke="gray" d="M1360.4999924946903,1146.4999731817024A6,6,0,1,1,1348.4999924946903,1146.4999731817024A6,6,0,1,1,1360.4999924946903,1146.4999731817024"></path><path id="kity_path_469" fill="none" stroke="gray"></path></g><path id="node_outline36" fill="none" stroke="none" d="M1365.4999922692764,1135.4999731817024h71a5,5,0,0,1,5,5v12a5,5,0,0,1,-5,5h-71a5,5,0,0,1,-5,-5v-12a5,5,0,0,1,5,-5z"></path><g id="node_text36" fill="black"><text id="kity_text_233" text-rendering="inherit" font-size="12" dy=".8em" y="1140.4999731817024" x="1370.4999922692764">LRU Cache</text></g></g><g id="minder_node40"><g id="node_expander55" style="cursor: pointer;"><path id="kity_path_528" fill="white" stroke="gray" d="M674.5000028095455,408.4999835789204A6,6,0,1,1,662.5000028095455,408.4999835789204A6,6,0,1,1,674.5000028095455,408.4999835789204"></path><path id="kity_path_529" fill="none" stroke="gray" d="M664.0000028095455,408.4999835789204L673.0000028095455,408.4999835789204"></path></g><path id="node_outline56" fill="rgb(238, 243, 246)" stroke="rgb(115, 161, 191)" d="M553.5000035399735,395.4999835789204h105a3,3,0,0,1,3,3v20a3,3,0,0,1,-3,3h-105a3,3,0,0,1,-3,-3v-20a3,3,0,0,1,3,-3z" stroke-width="1"></path><g id="node_text56" fill="black"><text id="kity_text_273" text-rendering="inherit" font-size="14" dy=".8em" y="401.4999835789204" x="570.5000035399735">树与二叉树</text></g></g><g id="minder_node41"><g id="node_expander52" style="cursor: pointer;"><path id="kity_path_519" fill="white" stroke="gray" d="M522.5000038672572,265.49998559355754A6,6,0,1,1,510.5000038672572,265.49998559355754A6,6,0,1,1,522.5000038672572,265.49998559355754"></path><path id="kity_path_520" fill="none" stroke="gray" d="M512.0000038672572,265.49998559355754L521.0000038672572,265.49998559355754"></path></g><path id="node_outline53" fill="none" stroke="none" d="M459.5000050333408,254.49998559355754h46a5,5,0,0,1,5,5v12a5,5,0,0,1,-5,5h-46a5,5,0,0,1,-5,-5v-12a5,5,0,0,1,5,-5z"></path><g id="node_text53" fill="black"><text id="kity_text_267" text-rendering="inherit" font-size="12" dy=".8em" y="259.49998559355754" x="464.5000050333408">二叉树</text></g></g><g id="minder_node42"><g id="node_expander46" style="cursor: pointer;"><path id="kity_path_501" fill="white" stroke="gray" d="M426.5000047862526,83.49998815764127A6,6,0,1,1,414.5000047862526,83.49998815764127A6,6,0,1,1,426.5000047862526,83.49998815764127"></path><path id="kity_path_502" fill="none" stroke="gray" d="M416.0000047862526,83.49998815764127L425.0000047862526,83.49998815764127"></path></g><path id="node_outline47" fill="none" stroke="none" d="M375.50000621676406,72.49998815764127h34a5,5,0,0,1,5,5v12a5,5,0,0,1,-5,5h-34a5,5,0,0,1,-5,-5v-12a5,5,0,0,1,5,-5z"></path><g id="node_text47" fill="black"><text id="kity_text_255" text-rendering="inherit" font-size="12" dy=".8em" y="77.49998815764127" x="380.50000621676406">特点</text></g></g><g id="minder_node43"><g id="node_expander39" display="none" style="cursor: pointer;"><path id="kity_path_480" fill="white" stroke="gray" d="M342.5000010929323,31.49998889023641A6,6,0,1,1,330.5000010929323,31.49998889023641A6,6,0,1,1,342.5000010929323,31.49998889023641"></path><path id="kity_path_481" fill="none" stroke="gray"></path></g><path id="node_outline40" fill="none" stroke="none" d="M194.50000876675927,20.49998889023641h131a5,5,0,0,1,5,5v12a5,5,0,0,1,-5,5h-131a5,5,0,0,1,-5,-5v-12a5,5,0,0,1,5,-5z"></path><g id="node_text40" fill="black"><text id="kity_text_241" text-rendering="inherit" font-size="12" dy=".8em" y="25.49998889023641" x="199.50000876675927">顺序和链式都可以实现</text></g></g><g id="minder_node44"><g id="node_expander45" style="cursor: pointer;"><path id="kity_path_498" fill="white" stroke="gray" d="M342.5000054278154,135.49998742504584A6,6,0,1,1,330.5000054278154,135.49998742504584A6,6,0,1,1,342.5000054278154,135.49998742504584"></path><path id="kity_path_499" fill="none" stroke="gray" d="M332.0000054278154,135.49998742504584L341.0000054278154,135.49998742504584"></path></g><path id="node_outline46" fill="none" stroke="none" d="M266.5000077523965,124.49998742504584h59a5,5,0,0,1,5,5v12a5,5,0,0,1,-5,5h-59a5,5,0,0,1,-5,-5v-12a5,5,0,0,1,5,-5z"></path><g id="node_text46" fill="black"><text id="kity_text_253" text-rendering="inherit" font-size="12" dy=".8em" y="129.49998742504584" x="271.5000077523965">遍历方式</text></g></g><g id="minder_node45"><g id="node_expander40" display="none" style="cursor: pointer;"><path id="kity_path_483" fill="white" stroke="gray" d="M233.50000783042458,83.49998815764127A6,6,0,1,1,221.50000783042458,83.49998815764127A6,6,0,1,1,233.50000783042458,83.49998815764127"></path><path id="kity_path_484" fill="none" stroke="gray"></path></g><path id="node_outline41" fill="none" stroke="none" d="M133.50000962615002,72.49998815764127h83a5,5,0,0,1,5,5v12a5,5,0,0,1,-5,5h-83a5,5,0,0,1,-5,-5v-12a5,5,0,0,1,5,-5z"></path><g id="node_text41" fill="black"><text id="kity_text_243" text-rendering="inherit" font-size="12" dy=".8em" y="77.49998815764127" x="138.50000962615002">广度优先搜索</text></g></g><g id="minder_node46"><g id="node_expander44" style="cursor: pointer;"><path id="kity_path_495" fill="white" stroke="gray" d="M233.50000783042458,187.4999866924506A6,6,0,1,1,221.50000783042458,187.4999866924506A6,6,0,1,1,233.50000783042458,187.4999866924506"></path><path id="kity_path_496" fill="none" stroke="gray" d="M223.00000783042458,187.4999866924506L232.00000783042458,187.4999866924506"></path></g><path id="node_outline45" fill="none" stroke="none" d="M133.50000962615002,176.4999866924506h83a5,5,0,0,1,5,5v12a5,5,0,0,1,-5,5h-83a5,5,0,0,1,-5,-5v-12a5,5,0,0,1,5,-5z"></path><g id="node_text45" fill="black"><text id="kity_text_251" text-rendering="inherit" font-size="12" dy=".8em" y="181.4999866924506" x="138.50000962615002">深度优先搜索 </text></g></g><g id="minder_node47"><g id="node_expander41" display="none" style="cursor: pointer;"><path id="kity_path_486" fill="white" stroke="gray" d="M100.50000883720122,135.49998742504584A6,6,0,1,1,88.50000883720122,135.49998742504584A6,6,0,1,1,100.50000883720122,135.49998742504584"></path><path id="kity_path_487" fill="none" stroke="gray"></path></g><path id="node_outline42" fill="none" stroke="none" d="M24.500011161782368,124.49998742504584h59a5,5,0,0,1,5,5v12a5,5,0,0,1,-5,5h-59a5,5,0,0,1,-5,-5v-12a5,5,0,0,1,5,-5z"></path><g id="node_text42" fill="black"><text id="kity_text_245" text-rendering="inherit" font-size="12" dy=".8em" y="129.49998742504584" x="29.500011161782368">前序遍历</text></g></g><g id="minder_node48"><g id="node_expander42" display="none" style="cursor: pointer;"><path id="kity_path_489" fill="white" stroke="gray" d="M100.50000883720122,187.4999866924506A6,6,0,1,1,88.50000883720122,187.4999866924506A6,6,0,1,1,100.50000883720122,187.4999866924506"></path><path id="kity_path_490" fill="none" stroke="gray"></path></g><path id="node_outline43" fill="none" stroke="none" d="M24.500011161782368,176.4999866924506h59a5,5,0,0,1,5,5v12a5,5,0,0,1,-5,5h-59a5,5,0,0,1,-5,-5v-12a5,5,0,0,1,5,-5z"></path><g id="node_text43" fill="black"><text id="kity_text_247" text-rendering="inherit" font-size="12" dy=".8em" y="181.4999866924506" x="29.500011161782368">中序遍历</text></g></g><g id="minder_node49"><g id="node_expander43" display="none" style="cursor: pointer;"><path id="kity_path_492" fill="white" stroke="gray" d="M100.50000883720122,239.49998595985522A6,6,0,1,1,88.50000883720122,239.49998595985522A6,6,0,1,1,100.50000883720122,239.49998595985522"></path><path id="kity_path_493" fill="none" stroke="gray"></path></g><path id="node_outline44" fill="none" stroke="none" d="M24.500011161782368,228.49998595985522h59a5,5,0,0,1,5,5v12a5,5,0,0,1,-5,5h-59a5,5,0,0,1,-5,-5v-12a5,5,0,0,1,5,-5z"></path><g id="node_text44" fill="black"><text id="kity_text_249" text-rendering="inherit" font-size="12" dy=".8em" y="233.49998595985522" x="29.500011161782368">后序遍历</text></g></g><g id="minder_node50"><g id="node_expander47" display="none" style="cursor: pointer;"><path id="kity_path_504" fill="white" stroke="gray" d="M426.50000261881104,291.49998522725997A6,6,0,1,1,414.50000261881104,291.49998522725997A6,6,0,1,1,426.50000261881104,291.49998522725997"></path><path id="kity_path_505" fill="none" stroke="gray"></path></g><path id="node_outline48" fill="none" stroke="none" d="M339.50000672394543,280.49998522725997h70a5,5,0,0,1,5,5v12a5,5,0,0,1,-5,5h-70a5,5,0,0,1,-5,-5v-12a5,5,0,0,1,5,-5z"></path><g id="node_text48" fill="black"><text id="kity_text_257" text-rendering="inherit" font-size="12" dy=".8em" y="285.49998522725997" x="344.50000672394543">完全二叉树</text></g></g><g id="minder_node51"><g id="node_expander48" display="none" style="cursor: pointer;"><path id="kity_path_507" fill="white" stroke="gray" d="M426.5000056532292,343.49998449466455A6,6,0,1,1,414.5000056532292,343.49998449466455A6,6,0,1,1,426.5000056532292,343.49998449466455"></path><path id="kity_path_508" fill="none" stroke="gray"></path></g><path id="node_outline49" fill="none" stroke="none" d="M351.500006554885,332.49998449466455h58a5,5,0,0,1,5,5v12a5,5,0,0,1,-5,5h-58a5,5,0,0,1,-5,-5v-12a5,5,0,0,1,5,-5z"></path><g id="node_text49" fill="black"><text id="kity_text_259" text-rendering="inherit" font-size="12" dy=".8em" y="337.49998449466455" x="356.500006554885">满二叉树</text></g></g><g id="minder_node52"><g id="node_expander49" display="none" style="cursor: pointer;"><path id="kity_path_510" fill="white" stroke="gray" d="M426.50000261881104,395.4999837620693A6,6,0,1,1,414.50000261881104,395.4999837620693A6,6,0,1,1,426.50000261881104,395.4999837620693"></path><path id="kity_path_511" fill="none" stroke="gray"></path></g><path id="node_outline50" fill="none" stroke="none" d="M339.50000672394543,384.4999837620693h70a5,5,0,0,1,5,5v12a5,5,0,0,1,-5,5h-70a5,5,0,0,1,-5,-5v-12a5,5,0,0,1,5,-5z"></path><g id="node_text50" fill="black"><text id="kity_text_261" text-rendering="inherit" font-size="12" dy=".8em" y="389.4999837620693" x="344.50000672394543">二叉搜索树</text></g></g><g id="minder_node53"><g id="node_expander51" style="cursor: pointer;"><path id="kity_path_516" fill="white" stroke="gray" d="M426.50000348578766,447.4999830294739A6,6,0,1,1,414.50000348578766,447.4999830294739A6,6,0,1,1,426.50000348578766,447.4999830294739"></path><path id="kity_path_517" fill="none" stroke="gray" d="M416.00000348578766,447.4999830294739L425.00000348578766,447.4999830294739"></path></g><path id="node_outline52" fill="none" stroke="none" d="M315.50000706206635,436.4999830294739h94a5,5,0,0,1,5,5v12a5,5,0,0,1,-5,5h-94a5,5,0,0,1,-5,-5v-12a5,5,0,0,1,5,-5z"></path><g id="node_text52" fill="black"><text id="kity_text_265" text-rendering="inherit" font-size="12" dy=".8em" y="441.4999830294739" x="320.50000706206635">平衡二叉搜索树</text></g></g><g id="minder_node54"><g id="node_expander50" display="none" style="cursor: pointer;"><path id="kity_path_513" fill="white" stroke="gray" d="M282.5000072484663,447.4999830294739A6,6,0,1,1,270.5000072484663,447.4999830294739A6,6,0,1,1,282.5000072484663,447.4999830294739"></path><path id="kity_path_514" fill="none" stroke="gray"></path></g><path id="node_outline51" fill="none" stroke="none" d="M219.50000841454994,436.4999830294739h46a5,5,0,0,1,5,5v12a5,5,0,0,1,-5,5h-46a5,5,0,0,1,-5,-5v-12a5,5,0,0,1,5,-5z"></path><g id="node_text51" fill="black"><text id="kity_text_263" text-rendering="inherit" font-size="12" dy=".8em" y="441.4999830294739" x="224.50000841454994">红黑树</text></g></g><g id="minder_node55"><g id="node_expander53" display="none" style="cursor: pointer;"><path id="kity_path_522" fill="white" stroke="gray" d="M522.5000043007454,499.49998229687867A6,6,0,1,1,510.50000430074545,499.49998229687867A6,6,0,1,1,522.5000043007454,499.49998229687867"></path><path id="kity_path_523" fill="none" stroke="gray"></path></g><path id="node_outline54" fill="none" stroke="none" d="M447.50000520240127,488.49998229687867h58a5,5,0,0,1,5,5v12a5,5,0,0,1,-5,5h-58a5,5,0,0,1,-5,-5v-12a5,5,0,0,1,5,-5z"></path><g id="node_text54" fill="black"><text id="kity_text_269" text-rendering="inherit" font-size="12" dy=".8em" y="493.49998229687867" x="452.50000520240127">哈夫曼树</text></g></g><g id="minder_node56"><g id="node_expander54" display="none" style="cursor: pointer;"><path id="kity_path_525" fill="white" stroke="gray" d="M522.5000038672572,551.4999815642833A6,6,0,1,1,510.5000038672572,551.4999815642833A6,6,0,1,1,522.5000038672572,551.4999815642833"></path><path id="kity_path_526" fill="none" stroke="gray"></path></g><path id="node_outline55" fill="none" stroke="none" d="M459.5000050333408,540.4999815642833h46a5,5,0,0,1,5,5v12a5,5,0,0,1,-5,5h-46a5,5,0,0,1,-5,-5v-12a5,5,0,0,1,5,-5z"></path><g id="node_text55" fill="black"><text id="kity_text_271" text-rendering="inherit" font-size="12" dy=".8em" y="545.4999815642833" x="464.5000050333408">字典树</text></g></g><g id="minder_node57"><g id="node_expander67" style="cursor: pointer;"><path id="kity_path_564" fill="white" stroke="gray" d="M674.5000030262897,795.4999781267207A6,6,0,1,1,662.5000030262897,795.4999781267207A6,6,0,1,1,674.5000030262897,795.4999781267207"></path><path id="kity_path_565" fill="none" stroke="gray" d="M664.0000030262897,795.4999781267207L673.0000030262897,795.4999781267207"></path></g><path id="node_outline68" fill="rgb(238, 243, 246)" stroke="rgb(115, 161, 191)" d="M595.5000029482619,782.4999781267207h63a3,3,0,0,1,3,3v20a3,3,0,0,1,-3,3h-63a3,3,0,0,1,-3,-3v-20a3,3,0,0,1,3,-3z" stroke-width="1"></path><g id="node_text68" fill="black"><text id="kity_text_297" text-rendering="inherit" font-size="14" dy=".8em" y="788.4999781267207" x="612.5000029482619">排序 </text></g></g><g id="minder_node58"><g id="node_expander59" style="cursor: pointer;"><path id="kity_path_540" fill="white" stroke="gray" d="M564.5000031671735,665.499979958209A6,6,0,1,1,552.5000031671735,665.499979958209A6,6,0,1,1,564.5000031671735,665.499979958209"></path><path id="kity_path_541" fill="none" stroke="gray" d="M554.0000031671735,665.499979958209L563.0000031671735,665.499979958209"></path></g><path id="node_outline60" fill="none" stroke="none" d="M496.5000045120711,654.499979958209h51a5,5,0,0,1,5,5v12a5,5,0,0,1,-5,5h-51a5,5,0,0,1,-5,-5v-12a5,5,0,0,1,5,-5z"></path><g id="node_text60" fill="black"><text id="kity_text_281" text-rendering="inherit" font-size="12" dy=".8em" y="659.499979958209" x="501.5000045120711">O(n^2)</text></g></g><g id="minder_node59"><g id="node_expander56" display="none" style="cursor: pointer;"><path id="kity_path_531" fill="white" stroke="gray" d="M463.50000372312246,613.4999806908043A6,6,0,1,1,451.50000372312246,613.4999806908043A6,6,0,1,1,463.50000372312246,613.4999806908043"></path><path id="kity_path_532" fill="none" stroke="gray"></path></g><path id="node_outline57" fill="none" stroke="none" d="M387.5000060477036,602.4999806908043h59a5,5,0,0,1,5,5v12a5,5,0,0,1,-5,5h-59a5,5,0,0,1,-5,-5v-12a5,5,0,0,1,5,-5z"></path><g id="node_text57" fill="black"><text id="kity_text_275" text-rendering="inherit" font-size="12" dy=".8em" y="607.4999806908043" x="392.5000060477036">冒泡排序</text></g></g><g id="minder_node60"><g id="node_expander57" display="none" style="cursor: pointer;"><path id="kity_path_534" fill="white" stroke="gray" d="M463.50000372312246,665.499979958209A6,6,0,1,1,451.50000372312246,665.499979958209A6,6,0,1,1,463.50000372312246,665.499979958209"></path><path id="kity_path_535" fill="none" stroke="gray"></path></g><path id="node_outline58" fill="none" stroke="none" d="M387.5000060477036,654.499979958209h59a5,5,0,0,1,5,5v12a5,5,0,0,1,-5,5h-59a5,5,0,0,1,-5,-5v-12a5,5,0,0,1,5,-5z"></path><g id="node_text58" fill="black"><text id="kity_text_277" text-rendering="inherit" font-size="12" dy=".8em" y="659.499979958209" x="392.5000060477036">插入排序</text></g></g><g id="minder_node61"><g id="node_expander58" display="none" style="cursor: pointer;"><path id="kity_path_537" fill="white" stroke="gray" d="M463.50000372312246,717.4999792256137A6,6,0,1,1,451.50000372312246,717.4999792256137A6,6,0,1,1,463.50000372312246,717.4999792256137"></path><path id="kity_path_538" fill="none" stroke="gray"></path></g><path id="node_outline59" fill="none" stroke="none" d="M387.5000060477036,706.4999792256137h59a5,5,0,0,1,5,5v12a5,5,0,0,1,-5,5h-59a5,5,0,0,1,-5,-5v-12a5,5,0,0,1,5,-5z"></path><g id="node_text59" fill="black"><text id="kity_text_279" text-rendering="inherit" font-size="12" dy=".8em" y="711.4999792256137" x="392.5000060477036">选择排序</text></g></g><g id="minder_node62"><g id="node_expander62" style="cursor: pointer;"><path id="kity_path_549" fill="white" stroke="gray" d="M564.5000064183359,795.4999781267207A6,6,0,1,1,552.5000064183359,795.4999781267207A6,6,0,1,1,564.5000064183359,795.4999781267207"></path><path id="kity_path_550" fill="none" stroke="gray" d="M554.0000064183359,795.4999781267207L563.0000064183359,795.4999781267207"></path></g><path id="node_outline63" fill="none" stroke="none" d="M486.50000465295483,784.4999781267207h61a5,5,0,0,1,5,5v12a5,5,0,0,1,-5,5h-61a5,5,0,0,1,-5,-5v-12a5,5,0,0,1,5,-5z"></path><g id="node_text63" fill="black"><text id="kity_text_287" text-rendering="inherit" font-size="12" dy=".8em" y="789.4999781267207" x="491.50000465295483">O(nlogn)</text></g></g><g id="minder_node63"><g id="node_expander60" display="none" style="cursor: pointer;"><path id="kity_path_543" fill="white" stroke="gray" d="M453.50000386400615,769.4999784930184A6,6,0,1,1,441.50000386400615,769.4999784930184A6,6,0,1,1,453.50000386400615,769.4999784930184"></path><path id="kity_path_544" fill="none" stroke="gray"></path></g><path id="node_outline61" fill="none" stroke="none" d="M377.5000061885873,758.4999784930184h59a5,5,0,0,1,5,5v12a5,5,0,0,1,-5,5h-59a5,5,0,0,1,-5,-5v-12a5,5,0,0,1,5,-5z"></path><g id="node_text61" fill="black"><text id="kity_text_283" text-rendering="inherit" font-size="12" dy=".8em" y="763.4999784930184" x="382.5000061885873">快速排序</text></g></g><g id="minder_node64"><g id="node_expander61" display="none" style="cursor: pointer;"><path id="kity_path_546" fill="white" stroke="gray" d="M453.50000386400615,821.499977760423A6,6,0,1,1,441.50000386400615,821.499977760423A6,6,0,1,1,453.50000386400615,821.499977760423"></path><path id="kity_path_547" fill="none" stroke="gray"></path></g><path id="node_outline62" fill="none" stroke="none" d="M377.5000061885873,810.499977760423h59a5,5,0,0,1,5,5v12a5,5,0,0,1,-5,5h-59a5,5,0,0,1,-5,-5v-12a5,5,0,0,1,5,-5z"></path><g id="node_text62" fill="black"><text id="kity_text_285" text-rendering="inherit" font-size="12" dy=".8em" y="815.499977760423" x="382.5000061885873">归并排序</text></g></g><g id="minder_node65"><g id="node_expander66" style="cursor: pointer;"><path id="kity_path_561" fill="white" stroke="gray" d="M564.5000049011268,925.4999762952325A6,6,0,1,1,552.5000049011268,925.4999762952325A6,6,0,1,1,564.5000049011268,925.4999762952325"></path><path id="kity_path_562" fill="none" stroke="gray" d="M554.0000049011268,925.4999762952325L563.0000049011268,925.4999762952325"></path></g><path id="node_outline67" fill="none" stroke="none" d="M512.5000042866571,914.4999762952325h35a5,5,0,0,1,5,5v12a5,5,0,0,1,-5,5h-35a5,5,0,0,1,-5,-5v-12a5,5,0,0,1,5,-5z"></path><g id="node_text67" fill="black"><text id="kity_text_295" text-rendering="inherit" font-size="12" dy=".8em" y="919.4999762952325" x="517.5000042866571">O(n)</text></g></g><g id="minder_node66"><g id="node_expander63" display="none" style="cursor: pointer;"><path id="kity_path_552" fill="white" stroke="gray" d="M479.5000065321267,873.4999770278278A6,6,0,1,1,467.5000065321267,873.4999770278278A6,6,0,1,1,479.5000065321267,873.4999770278278"></path><path id="kity_path_553" fill="none" stroke="gray"></path></g><path id="node_outline64" fill="none" stroke="none" d="M415.5000056532292,862.4999770278278h47a5,5,0,0,1,5,5v12a5,5,0,0,1,-5,5h-47a5,5,0,0,1,-5,-5v-12a5,5,0,0,1,5,-5z"></path><g id="node_text64" fill="black"><text id="kity_text_289" text-rendering="inherit" font-size="12" dy=".8em" y="867.4999770278278" x="420.5000056532292">桶排序</text></g></g><g id="minder_node67"><g id="node_expander64" display="none" style="cursor: pointer;"><path id="kity_path_555" fill="white" stroke="gray" d="M479.5000034977085,925.4999762952325A6,6,0,1,1,467.5000034977085,925.4999762952325A6,6,0,1,1,479.5000034977085,925.4999762952325"></path><path id="kity_path_556" fill="none" stroke="gray"></path></g><path id="node_outline65" fill="none" stroke="none" d="M403.50000582228967,914.4999762952325h59a5,5,0,0,1,5,5v12a5,5,0,0,1,-5,5h-59a5,5,0,0,1,-5,-5v-12a5,5,0,0,1,5,-5z"></path><g id="node_text65" fill="black"><text id="kity_text_291" text-rendering="inherit" font-size="12" dy=".8em" y="919.4999762952325" x="408.50000582228967">计数排序</text></g></g><g id="minder_node68"><g id="node_expander65" display="none" style="cursor: pointer;"><path id="kity_path_558" fill="white" stroke="gray" d="M479.5000034977085,977.499975562637A6,6,0,1,1,467.5000034977085,977.499975562637A6,6,0,1,1,479.5000034977085,977.499975562637"></path><path id="kity_path_559" fill="none" stroke="gray"></path></g><path id="node_outline66" fill="none" stroke="none" d="M403.50000582228967,966.499975562637h59a5,5,0,0,1,5,5v12a5,5,0,0,1,-5,5h-59a5,5,0,0,1,-5,-5v-12a5,5,0,0,1,5,-5z"></path><g id="node_text66" fill="black"><text id="kity_text_293" text-rendering="inherit" font-size="12" dy=".8em" y="971.499975562637" x="408.50000582228967">基数排序</text></g></g></g></g></svg>